<?xml version="1.0" encoding="utf-8" standalone="no"?>
<!DOCTYPE svg PUBLIC "-//W3C//DTD SVG 1.1//EN"
  "http://www.w3.org/Graphics/SVG/1.1/DTD/svg11.dtd">
<svg height="648pt" version="1.1" viewBox="0 0 864 648" width="864pt" xmlns="http://www.w3.org/2000/svg" xmlns:xlink="http://www.w3.org/1999/xlink">
 <metadata>
  <rdf:RDF xmlns:cc="http://creativecommons.org/ns#" xmlns:dc="http://purl.org/dc/elements/1.1/" xmlns:rdf="http://www.w3.org/1999/02/22-rdf-syntax-ns#">
   <cc:Work>
    <dc:type rdf:resource="http://purl.org/dc/dcmitype/StillImage"/>
    <dc:date>2021-09-06T13:13:39.311319</dc:date>
    <dc:format>image/svg+xml</dc:format>
    <dc:creator>
     <cc:Agent>
      <dc:title>Matplotlib v3.4.2, https://matplotlib.org/</dc:title>
     </cc:Agent>
    </dc:creator>
   </cc:Work>
  </rdf:RDF>
 </metadata>
 <defs>
  <style type="text/css">*{stroke-linecap:butt;stroke-linejoin:round;}</style>
 </defs>
 <g id="figure_1">
  <g id="patch_1">
   <path d="M 0 648 
L 864 648 
L 864 0 
L 0 0 
z
" style="fill:#ffffff;"/>
  </g>
  <g id="axes_1">
   <g id="patch_2">
    <path d="M 54.2 287.44 
L 426.457739 287.44 
L 426.457739 25.44 
L 54.2 25.44 
z
" style="fill:#ffffff;"/>
   </g>
   <g id="matplotlib.axis_1">
    <g id="xtick_1">
     <g id="line2d_1">
      <defs>
       <path d="M 0 0 
L 0 3.5 
" id="ma56ec904de" style="stroke:#000000;stroke-width:0.8;"/>
      </defs>
      <g>
       <use style="stroke:#000000;stroke-width:0.8;" x="71.120806" xlink:href="#ma56ec904de" y="287.44"/>
      </g>
     </g>
     <g id="text_1">
      <!-- 0.00 -->
      <g transform="translate(59.987994 302.038437)scale(0.1 -0.1)">
       <defs>
        <path d="M 2034 4250 
Q 1547 4250 1301 3770 
Q 1056 3291 1056 2328 
Q 1056 1369 1301 889 
Q 1547 409 2034 409 
Q 2525 409 2770 889 
Q 3016 1369 3016 2328 
Q 3016 3291 2770 3770 
Q 2525 4250 2034 4250 
z
M 2034 4750 
Q 2819 4750 3233 4129 
Q 3647 3509 3647 2328 
Q 3647 1150 3233 529 
Q 2819 -91 2034 -91 
Q 1250 -91 836 529 
Q 422 1150 422 2328 
Q 422 3509 836 4129 
Q 1250 4750 2034 4750 
z
" id="DejaVuSans-30" transform="scale(0.015625)"/>
        <path d="M 684 794 
L 1344 794 
L 1344 0 
L 684 0 
L 684 794 
z
" id="DejaVuSans-2e" transform="scale(0.015625)"/>
       </defs>
       <use xlink:href="#DejaVuSans-30"/>
       <use x="63.623047" xlink:href="#DejaVuSans-2e"/>
       <use x="95.410156" xlink:href="#DejaVuSans-30"/>
       <use x="159.033203" xlink:href="#DejaVuSans-30"/>
      </g>
     </g>
    </g>
    <g id="xtick_2">
     <g id="line2d_2">
      <g>
       <use style="stroke:#000000;stroke-width:0.8;" x="114.094283" xlink:href="#ma56ec904de" y="287.44"/>
      </g>
     </g>
     <g id="text_2">
      <!-- 0.02 -->
      <g transform="translate(102.96147 302.038437)scale(0.1 -0.1)">
       <defs>
        <path d="M 1228 531 
L 3431 531 
L 3431 0 
L 469 0 
L 469 531 
Q 828 903 1448 1529 
Q 2069 2156 2228 2338 
Q 2531 2678 2651 2914 
Q 2772 3150 2772 3378 
Q 2772 3750 2511 3984 
Q 2250 4219 1831 4219 
Q 1534 4219 1204 4116 
Q 875 4013 500 3803 
L 500 4441 
Q 881 4594 1212 4672 
Q 1544 4750 1819 4750 
Q 2544 4750 2975 4387 
Q 3406 4025 3406 3419 
Q 3406 3131 3298 2873 
Q 3191 2616 2906 2266 
Q 2828 2175 2409 1742 
Q 1991 1309 1228 531 
z
" id="DejaVuSans-32" transform="scale(0.015625)"/>
       </defs>
       <use xlink:href="#DejaVuSans-30"/>
       <use x="63.623047" xlink:href="#DejaVuSans-2e"/>
       <use x="95.410156" xlink:href="#DejaVuSans-30"/>
       <use x="159.033203" xlink:href="#DejaVuSans-32"/>
      </g>
     </g>
    </g>
    <g id="xtick_3">
     <g id="line2d_3">
      <g>
       <use style="stroke:#000000;stroke-width:0.8;" x="157.067759" xlink:href="#ma56ec904de" y="287.44"/>
      </g>
     </g>
     <g id="text_3">
      <!-- 0.04 -->
      <g transform="translate(145.934947 302.038437)scale(0.1 -0.1)">
       <defs>
        <path d="M 2419 4116 
L 825 1625 
L 2419 1625 
L 2419 4116 
z
M 2253 4666 
L 3047 4666 
L 3047 1625 
L 3713 1625 
L 3713 1100 
L 3047 1100 
L 3047 0 
L 2419 0 
L 2419 1100 
L 313 1100 
L 313 1709 
L 2253 4666 
z
" id="DejaVuSans-34" transform="scale(0.015625)"/>
       </defs>
       <use xlink:href="#DejaVuSans-30"/>
       <use x="63.623047" xlink:href="#DejaVuSans-2e"/>
       <use x="95.410156" xlink:href="#DejaVuSans-30"/>
       <use x="159.033203" xlink:href="#DejaVuSans-34"/>
      </g>
     </g>
    </g>
    <g id="xtick_4">
     <g id="line2d_4">
      <g>
       <use style="stroke:#000000;stroke-width:0.8;" x="200.041235" xlink:href="#ma56ec904de" y="287.44"/>
      </g>
     </g>
     <g id="text_4">
      <!-- 0.06 -->
      <g transform="translate(188.908423 302.038437)scale(0.1 -0.1)">
       <defs>
        <path d="M 2113 2584 
Q 1688 2584 1439 2293 
Q 1191 2003 1191 1497 
Q 1191 994 1439 701 
Q 1688 409 2113 409 
Q 2538 409 2786 701 
Q 3034 994 3034 1497 
Q 3034 2003 2786 2293 
Q 2538 2584 2113 2584 
z
M 3366 4563 
L 3366 3988 
Q 3128 4100 2886 4159 
Q 2644 4219 2406 4219 
Q 1781 4219 1451 3797 
Q 1122 3375 1075 2522 
Q 1259 2794 1537 2939 
Q 1816 3084 2150 3084 
Q 2853 3084 3261 2657 
Q 3669 2231 3669 1497 
Q 3669 778 3244 343 
Q 2819 -91 2113 -91 
Q 1303 -91 875 529 
Q 447 1150 447 2328 
Q 447 3434 972 4092 
Q 1497 4750 2381 4750 
Q 2619 4750 2861 4703 
Q 3103 4656 3366 4563 
z
" id="DejaVuSans-36" transform="scale(0.015625)"/>
       </defs>
       <use xlink:href="#DejaVuSans-30"/>
       <use x="63.623047" xlink:href="#DejaVuSans-2e"/>
       <use x="95.410156" xlink:href="#DejaVuSans-30"/>
       <use x="159.033203" xlink:href="#DejaVuSans-36"/>
      </g>
     </g>
    </g>
    <g id="xtick_5">
     <g id="line2d_5">
      <g>
       <use style="stroke:#000000;stroke-width:0.8;" x="243.014712" xlink:href="#ma56ec904de" y="287.44"/>
      </g>
     </g>
     <g id="text_5">
      <!-- 0.08 -->
      <g transform="translate(231.881899 302.038437)scale(0.1 -0.1)">
       <defs>
        <path d="M 2034 2216 
Q 1584 2216 1326 1975 
Q 1069 1734 1069 1313 
Q 1069 891 1326 650 
Q 1584 409 2034 409 
Q 2484 409 2743 651 
Q 3003 894 3003 1313 
Q 3003 1734 2745 1975 
Q 2488 2216 2034 2216 
z
M 1403 2484 
Q 997 2584 770 2862 
Q 544 3141 544 3541 
Q 544 4100 942 4425 
Q 1341 4750 2034 4750 
Q 2731 4750 3128 4425 
Q 3525 4100 3525 3541 
Q 3525 3141 3298 2862 
Q 3072 2584 2669 2484 
Q 3125 2378 3379 2068 
Q 3634 1759 3634 1313 
Q 3634 634 3220 271 
Q 2806 -91 2034 -91 
Q 1263 -91 848 271 
Q 434 634 434 1313 
Q 434 1759 690 2068 
Q 947 2378 1403 2484 
z
M 1172 3481 
Q 1172 3119 1398 2916 
Q 1625 2713 2034 2713 
Q 2441 2713 2670 2916 
Q 2900 3119 2900 3481 
Q 2900 3844 2670 4047 
Q 2441 4250 2034 4250 
Q 1625 4250 1398 4047 
Q 1172 3844 1172 3481 
z
" id="DejaVuSans-38" transform="scale(0.015625)"/>
       </defs>
       <use xlink:href="#DejaVuSans-30"/>
       <use x="63.623047" xlink:href="#DejaVuSans-2e"/>
       <use x="95.410156" xlink:href="#DejaVuSans-30"/>
       <use x="159.033203" xlink:href="#DejaVuSans-38"/>
      </g>
     </g>
    </g>
    <g id="xtick_6">
     <g id="line2d_6">
      <g>
       <use style="stroke:#000000;stroke-width:0.8;" x="285.988188" xlink:href="#ma56ec904de" y="287.44"/>
      </g>
     </g>
     <g id="text_6">
      <!-- 0.10 -->
      <g transform="translate(274.855376 302.038437)scale(0.1 -0.1)">
       <defs>
        <path d="M 794 531 
L 1825 531 
L 1825 4091 
L 703 3866 
L 703 4441 
L 1819 4666 
L 2450 4666 
L 2450 531 
L 3481 531 
L 3481 0 
L 794 0 
L 794 531 
z
" id="DejaVuSans-31" transform="scale(0.015625)"/>
       </defs>
       <use xlink:href="#DejaVuSans-30"/>
       <use x="63.623047" xlink:href="#DejaVuSans-2e"/>
       <use x="95.410156" xlink:href="#DejaVuSans-31"/>
       <use x="159.033203" xlink:href="#DejaVuSans-30"/>
      </g>
     </g>
    </g>
    <g id="xtick_7">
     <g id="line2d_7">
      <g>
       <use style="stroke:#000000;stroke-width:0.8;" x="328.961665" xlink:href="#ma56ec904de" y="287.44"/>
      </g>
     </g>
     <g id="text_7">
      <!-- 0.12 -->
      <g transform="translate(317.828852 302.038437)scale(0.1 -0.1)">
       <use xlink:href="#DejaVuSans-30"/>
       <use x="63.623047" xlink:href="#DejaVuSans-2e"/>
       <use x="95.410156" xlink:href="#DejaVuSans-31"/>
       <use x="159.033203" xlink:href="#DejaVuSans-32"/>
      </g>
     </g>
    </g>
    <g id="xtick_8">
     <g id="line2d_8">
      <g>
       <use style="stroke:#000000;stroke-width:0.8;" x="371.935141" xlink:href="#ma56ec904de" y="287.44"/>
      </g>
     </g>
     <g id="text_8">
      <!-- 0.14 -->
      <g transform="translate(360.802328 302.038437)scale(0.1 -0.1)">
       <use xlink:href="#DejaVuSans-30"/>
       <use x="63.623047" xlink:href="#DejaVuSans-2e"/>
       <use x="95.410156" xlink:href="#DejaVuSans-31"/>
       <use x="159.033203" xlink:href="#DejaVuSans-34"/>
      </g>
     </g>
    </g>
    <g id="xtick_9">
     <g id="line2d_9">
      <g>
       <use style="stroke:#000000;stroke-width:0.8;" x="414.908617" xlink:href="#ma56ec904de" y="287.44"/>
      </g>
     </g>
     <g id="text_9">
      <!-- 0.16 -->
      <g transform="translate(403.775805 302.038437)scale(0.1 -0.1)">
       <use xlink:href="#DejaVuSans-30"/>
       <use x="63.623047" xlink:href="#DejaVuSans-2e"/>
       <use x="95.410156" xlink:href="#DejaVuSans-31"/>
       <use x="159.033203" xlink:href="#DejaVuSans-36"/>
      </g>
     </g>
    </g>
    <g id="text_10">
     <!-- Protein concentration [mM] -->
     <g transform="translate(171.911682 315.716563)scale(0.1 -0.1)">
      <defs>
       <path d="M 1259 4147 
L 1259 2394 
L 2053 2394 
Q 2494 2394 2734 2622 
Q 2975 2850 2975 3272 
Q 2975 3691 2734 3919 
Q 2494 4147 2053 4147 
L 1259 4147 
z
M 628 4666 
L 2053 4666 
Q 2838 4666 3239 4311 
Q 3641 3956 3641 3272 
Q 3641 2581 3239 2228 
Q 2838 1875 2053 1875 
L 1259 1875 
L 1259 0 
L 628 0 
L 628 4666 
z
" id="DejaVuSans-50" transform="scale(0.015625)"/>
       <path d="M 2631 2963 
Q 2534 3019 2420 3045 
Q 2306 3072 2169 3072 
Q 1681 3072 1420 2755 
Q 1159 2438 1159 1844 
L 1159 0 
L 581 0 
L 581 3500 
L 1159 3500 
L 1159 2956 
Q 1341 3275 1631 3429 
Q 1922 3584 2338 3584 
Q 2397 3584 2469 3576 
Q 2541 3569 2628 3553 
L 2631 2963 
z
" id="DejaVuSans-72" transform="scale(0.015625)"/>
       <path d="M 1959 3097 
Q 1497 3097 1228 2736 
Q 959 2375 959 1747 
Q 959 1119 1226 758 
Q 1494 397 1959 397 
Q 2419 397 2687 759 
Q 2956 1122 2956 1747 
Q 2956 2369 2687 2733 
Q 2419 3097 1959 3097 
z
M 1959 3584 
Q 2709 3584 3137 3096 
Q 3566 2609 3566 1747 
Q 3566 888 3137 398 
Q 2709 -91 1959 -91 
Q 1206 -91 779 398 
Q 353 888 353 1747 
Q 353 2609 779 3096 
Q 1206 3584 1959 3584 
z
" id="DejaVuSans-6f" transform="scale(0.015625)"/>
       <path d="M 1172 4494 
L 1172 3500 
L 2356 3500 
L 2356 3053 
L 1172 3053 
L 1172 1153 
Q 1172 725 1289 603 
Q 1406 481 1766 481 
L 2356 481 
L 2356 0 
L 1766 0 
Q 1100 0 847 248 
Q 594 497 594 1153 
L 594 3053 
L 172 3053 
L 172 3500 
L 594 3500 
L 594 4494 
L 1172 4494 
z
" id="DejaVuSans-74" transform="scale(0.015625)"/>
       <path d="M 3597 1894 
L 3597 1613 
L 953 1613 
Q 991 1019 1311 708 
Q 1631 397 2203 397 
Q 2534 397 2845 478 
Q 3156 559 3463 722 
L 3463 178 
Q 3153 47 2828 -22 
Q 2503 -91 2169 -91 
Q 1331 -91 842 396 
Q 353 884 353 1716 
Q 353 2575 817 3079 
Q 1281 3584 2069 3584 
Q 2775 3584 3186 3129 
Q 3597 2675 3597 1894 
z
M 3022 2063 
Q 3016 2534 2758 2815 
Q 2500 3097 2075 3097 
Q 1594 3097 1305 2825 
Q 1016 2553 972 2059 
L 3022 2063 
z
" id="DejaVuSans-65" transform="scale(0.015625)"/>
       <path d="M 603 3500 
L 1178 3500 
L 1178 0 
L 603 0 
L 603 3500 
z
M 603 4863 
L 1178 4863 
L 1178 4134 
L 603 4134 
L 603 4863 
z
" id="DejaVuSans-69" transform="scale(0.015625)"/>
       <path d="M 3513 2113 
L 3513 0 
L 2938 0 
L 2938 2094 
Q 2938 2591 2744 2837 
Q 2550 3084 2163 3084 
Q 1697 3084 1428 2787 
Q 1159 2491 1159 1978 
L 1159 0 
L 581 0 
L 581 3500 
L 1159 3500 
L 1159 2956 
Q 1366 3272 1645 3428 
Q 1925 3584 2291 3584 
Q 2894 3584 3203 3211 
Q 3513 2838 3513 2113 
z
" id="DejaVuSans-6e" transform="scale(0.015625)"/>
       <path id="DejaVuSans-20" transform="scale(0.015625)"/>
       <path d="M 3122 3366 
L 3122 2828 
Q 2878 2963 2633 3030 
Q 2388 3097 2138 3097 
Q 1578 3097 1268 2742 
Q 959 2388 959 1747 
Q 959 1106 1268 751 
Q 1578 397 2138 397 
Q 2388 397 2633 464 
Q 2878 531 3122 666 
L 3122 134 
Q 2881 22 2623 -34 
Q 2366 -91 2075 -91 
Q 1284 -91 818 406 
Q 353 903 353 1747 
Q 353 2603 823 3093 
Q 1294 3584 2113 3584 
Q 2378 3584 2631 3529 
Q 2884 3475 3122 3366 
z
" id="DejaVuSans-63" transform="scale(0.015625)"/>
       <path d="M 2194 1759 
Q 1497 1759 1228 1600 
Q 959 1441 959 1056 
Q 959 750 1161 570 
Q 1363 391 1709 391 
Q 2188 391 2477 730 
Q 2766 1069 2766 1631 
L 2766 1759 
L 2194 1759 
z
M 3341 1997 
L 3341 0 
L 2766 0 
L 2766 531 
Q 2569 213 2275 61 
Q 1981 -91 1556 -91 
Q 1019 -91 701 211 
Q 384 513 384 1019 
Q 384 1609 779 1909 
Q 1175 2209 1959 2209 
L 2766 2209 
L 2766 2266 
Q 2766 2663 2505 2880 
Q 2244 3097 1772 3097 
Q 1472 3097 1187 3025 
Q 903 2953 641 2809 
L 641 3341 
Q 956 3463 1253 3523 
Q 1550 3584 1831 3584 
Q 2591 3584 2966 3190 
Q 3341 2797 3341 1997 
z
" id="DejaVuSans-61" transform="scale(0.015625)"/>
       <path d="M 550 4863 
L 1875 4863 
L 1875 4416 
L 1125 4416 
L 1125 -397 
L 1875 -397 
L 1875 -844 
L 550 -844 
L 550 4863 
z
" id="DejaVuSans-5b" transform="scale(0.015625)"/>
       <path d="M 3328 2828 
Q 3544 3216 3844 3400 
Q 4144 3584 4550 3584 
Q 5097 3584 5394 3201 
Q 5691 2819 5691 2113 
L 5691 0 
L 5113 0 
L 5113 2094 
Q 5113 2597 4934 2840 
Q 4756 3084 4391 3084 
Q 3944 3084 3684 2787 
Q 3425 2491 3425 1978 
L 3425 0 
L 2847 0 
L 2847 2094 
Q 2847 2600 2669 2842 
Q 2491 3084 2119 3084 
Q 1678 3084 1418 2786 
Q 1159 2488 1159 1978 
L 1159 0 
L 581 0 
L 581 3500 
L 1159 3500 
L 1159 2956 
Q 1356 3278 1631 3431 
Q 1906 3584 2284 3584 
Q 2666 3584 2933 3390 
Q 3200 3197 3328 2828 
z
" id="DejaVuSans-6d" transform="scale(0.015625)"/>
       <path d="M 628 4666 
L 1569 4666 
L 2759 1491 
L 3956 4666 
L 4897 4666 
L 4897 0 
L 4281 0 
L 4281 4097 
L 3078 897 
L 2444 897 
L 1241 4097 
L 1241 0 
L 628 0 
L 628 4666 
z
" id="DejaVuSans-4d" transform="scale(0.015625)"/>
       <path d="M 1947 4863 
L 1947 -844 
L 622 -844 
L 622 -397 
L 1369 -397 
L 1369 4416 
L 622 4416 
L 622 4863 
L 1947 4863 
z
" id="DejaVuSans-5d" transform="scale(0.015625)"/>
      </defs>
      <use xlink:href="#DejaVuSans-50"/>
      <use x="58.552734" xlink:href="#DejaVuSans-72"/>
      <use x="97.416016" xlink:href="#DejaVuSans-6f"/>
      <use x="158.597656" xlink:href="#DejaVuSans-74"/>
      <use x="197.806641" xlink:href="#DejaVuSans-65"/>
      <use x="259.330078" xlink:href="#DejaVuSans-69"/>
      <use x="287.113281" xlink:href="#DejaVuSans-6e"/>
      <use x="350.492188" xlink:href="#DejaVuSans-20"/>
      <use x="382.279297" xlink:href="#DejaVuSans-63"/>
      <use x="437.259766" xlink:href="#DejaVuSans-6f"/>
      <use x="498.441406" xlink:href="#DejaVuSans-6e"/>
      <use x="561.820312" xlink:href="#DejaVuSans-63"/>
      <use x="616.800781" xlink:href="#DejaVuSans-65"/>
      <use x="678.324219" xlink:href="#DejaVuSans-6e"/>
      <use x="741.703125" xlink:href="#DejaVuSans-74"/>
      <use x="780.912109" xlink:href="#DejaVuSans-72"/>
      <use x="822.025391" xlink:href="#DejaVuSans-61"/>
      <use x="883.304688" xlink:href="#DejaVuSans-74"/>
      <use x="922.513672" xlink:href="#DejaVuSans-69"/>
      <use x="950.296875" xlink:href="#DejaVuSans-6f"/>
      <use x="1011.478516" xlink:href="#DejaVuSans-6e"/>
      <use x="1074.857422" xlink:href="#DejaVuSans-20"/>
      <use x="1106.644531" xlink:href="#DejaVuSans-5b"/>
      <use x="1145.658203" xlink:href="#DejaVuSans-6d"/>
      <use x="1243.070312" xlink:href="#DejaVuSans-4d"/>
      <use x="1329.349609" xlink:href="#DejaVuSans-5d"/>
     </g>
    </g>
   </g>
   <g id="matplotlib.axis_2">
    <g id="ytick_1">
     <g id="line2d_10">
      <defs>
       <path d="M 0 0 
L -3.5 0 
" id="m1c04f69a0c" style="stroke:#000000;stroke-width:0.8;"/>
      </defs>
      <g>
       <use style="stroke:#000000;stroke-width:0.8;" x="54.2" xlink:href="#m1c04f69a0c" y="275.530909"/>
      </g>
     </g>
     <g id="text_11">
      <!-- 0.0 -->
      <g transform="translate(31.296875 279.330128)scale(0.1 -0.1)">
       <use xlink:href="#DejaVuSans-30"/>
       <use x="63.623047" xlink:href="#DejaVuSans-2e"/>
       <use x="95.410156" xlink:href="#DejaVuSans-30"/>
      </g>
     </g>
    </g>
    <g id="ytick_2">
     <g id="line2d_11">
      <g>
       <use style="stroke:#000000;stroke-width:0.8;" x="54.2" xlink:href="#m1c04f69a0c" y="241.974662"/>
      </g>
     </g>
     <g id="text_12">
      <!-- 2.5 -->
      <g transform="translate(31.296875 245.773881)scale(0.1 -0.1)">
       <defs>
        <path d="M 691 4666 
L 3169 4666 
L 3169 4134 
L 1269 4134 
L 1269 2991 
Q 1406 3038 1543 3061 
Q 1681 3084 1819 3084 
Q 2600 3084 3056 2656 
Q 3513 2228 3513 1497 
Q 3513 744 3044 326 
Q 2575 -91 1722 -91 
Q 1428 -91 1123 -41 
Q 819 9 494 109 
L 494 744 
Q 775 591 1075 516 
Q 1375 441 1709 441 
Q 2250 441 2565 725 
Q 2881 1009 2881 1497 
Q 2881 1984 2565 2268 
Q 2250 2553 1709 2553 
Q 1456 2553 1204 2497 
Q 953 2441 691 2322 
L 691 4666 
z
" id="DejaVuSans-35" transform="scale(0.015625)"/>
       </defs>
       <use xlink:href="#DejaVuSans-32"/>
       <use x="63.623047" xlink:href="#DejaVuSans-2e"/>
       <use x="95.410156" xlink:href="#DejaVuSans-35"/>
      </g>
     </g>
    </g>
    <g id="ytick_3">
     <g id="line2d_12">
      <g>
       <use style="stroke:#000000;stroke-width:0.8;" x="54.2" xlink:href="#m1c04f69a0c" y="208.418415"/>
      </g>
     </g>
     <g id="text_13">
      <!-- 5.0 -->
      <g transform="translate(31.296875 212.217634)scale(0.1 -0.1)">
       <use xlink:href="#DejaVuSans-35"/>
       <use x="63.623047" xlink:href="#DejaVuSans-2e"/>
       <use x="95.410156" xlink:href="#DejaVuSans-30"/>
      </g>
     </g>
    </g>
    <g id="ytick_4">
     <g id="line2d_13">
      <g>
       <use style="stroke:#000000;stroke-width:0.8;" x="54.2" xlink:href="#m1c04f69a0c" y="174.862168"/>
      </g>
     </g>
     <g id="text_14">
      <!-- 7.5 -->
      <g transform="translate(31.296875 178.661387)scale(0.1 -0.1)">
       <defs>
        <path d="M 525 4666 
L 3525 4666 
L 3525 4397 
L 1831 0 
L 1172 0 
L 2766 4134 
L 525 4134 
L 525 4666 
z
" id="DejaVuSans-37" transform="scale(0.015625)"/>
       </defs>
       <use xlink:href="#DejaVuSans-37"/>
       <use x="63.623047" xlink:href="#DejaVuSans-2e"/>
       <use x="95.410156" xlink:href="#DejaVuSans-35"/>
      </g>
     </g>
    </g>
    <g id="ytick_5">
     <g id="line2d_14">
      <g>
       <use style="stroke:#000000;stroke-width:0.8;" x="54.2" xlink:href="#m1c04f69a0c" y="141.305921"/>
      </g>
     </g>
     <g id="text_15">
      <!-- 10.0 -->
      <g transform="translate(24.934375 145.10514)scale(0.1 -0.1)">
       <use xlink:href="#DejaVuSans-31"/>
       <use x="63.623047" xlink:href="#DejaVuSans-30"/>
       <use x="127.246094" xlink:href="#DejaVuSans-2e"/>
       <use x="159.033203" xlink:href="#DejaVuSans-30"/>
      </g>
     </g>
    </g>
    <g id="ytick_6">
     <g id="line2d_15">
      <g>
       <use style="stroke:#000000;stroke-width:0.8;" x="54.2" xlink:href="#m1c04f69a0c" y="107.749674"/>
      </g>
     </g>
     <g id="text_16">
      <!-- 12.5 -->
      <g transform="translate(24.934375 111.548893)scale(0.1 -0.1)">
       <use xlink:href="#DejaVuSans-31"/>
       <use x="63.623047" xlink:href="#DejaVuSans-32"/>
       <use x="127.246094" xlink:href="#DejaVuSans-2e"/>
       <use x="159.033203" xlink:href="#DejaVuSans-35"/>
      </g>
     </g>
    </g>
    <g id="ytick_7">
     <g id="line2d_16">
      <g>
       <use style="stroke:#000000;stroke-width:0.8;" x="54.2" xlink:href="#m1c04f69a0c" y="74.193427"/>
      </g>
     </g>
     <g id="text_17">
      <!-- 15.0 -->
      <g transform="translate(24.934375 77.992646)scale(0.1 -0.1)">
       <use xlink:href="#DejaVuSans-31"/>
       <use x="63.623047" xlink:href="#DejaVuSans-35"/>
       <use x="127.246094" xlink:href="#DejaVuSans-2e"/>
       <use x="159.033203" xlink:href="#DejaVuSans-30"/>
      </g>
     </g>
    </g>
    <g id="ytick_8">
     <g id="line2d_17">
      <g>
       <use style="stroke:#000000;stroke-width:0.8;" x="54.2" xlink:href="#m1c04f69a0c" y="40.63718"/>
      </g>
     </g>
     <g id="text_18">
      <!-- 17.5 -->
      <g transform="translate(24.934375 44.436399)scale(0.1 -0.1)">
       <use xlink:href="#DejaVuSans-31"/>
       <use x="63.623047" xlink:href="#DejaVuSans-37"/>
       <use x="127.246094" xlink:href="#DejaVuSans-2e"/>
       <use x="159.033203" xlink:href="#DejaVuSans-35"/>
      </g>
     </g>
    </g>
    <g id="text_19">
     <!-- SDS concentration [mM] -->
     <g transform="translate(18.854687 217.531406)rotate(-90)scale(0.1 -0.1)">
      <defs>
       <path d="M 3425 4513 
L 3425 3897 
Q 3066 4069 2747 4153 
Q 2428 4238 2131 4238 
Q 1616 4238 1336 4038 
Q 1056 3838 1056 3469 
Q 1056 3159 1242 3001 
Q 1428 2844 1947 2747 
L 2328 2669 
Q 3034 2534 3370 2195 
Q 3706 1856 3706 1288 
Q 3706 609 3251 259 
Q 2797 -91 1919 -91 
Q 1588 -91 1214 -16 
Q 841 59 441 206 
L 441 856 
Q 825 641 1194 531 
Q 1563 422 1919 422 
Q 2459 422 2753 634 
Q 3047 847 3047 1241 
Q 3047 1584 2836 1778 
Q 2625 1972 2144 2069 
L 1759 2144 
Q 1053 2284 737 2584 
Q 422 2884 422 3419 
Q 422 4038 858 4394 
Q 1294 4750 2059 4750 
Q 2388 4750 2728 4690 
Q 3069 4631 3425 4513 
z
" id="DejaVuSans-53" transform="scale(0.015625)"/>
       <path d="M 1259 4147 
L 1259 519 
L 2022 519 
Q 2988 519 3436 956 
Q 3884 1394 3884 2338 
Q 3884 3275 3436 3711 
Q 2988 4147 2022 4147 
L 1259 4147 
z
M 628 4666 
L 1925 4666 
Q 3281 4666 3915 4102 
Q 4550 3538 4550 2338 
Q 4550 1131 3912 565 
Q 3275 0 1925 0 
L 628 0 
L 628 4666 
z
" id="DejaVuSans-44" transform="scale(0.015625)"/>
      </defs>
      <use xlink:href="#DejaVuSans-53"/>
      <use x="63.476562" xlink:href="#DejaVuSans-44"/>
      <use x="140.478516" xlink:href="#DejaVuSans-53"/>
      <use x="203.955078" xlink:href="#DejaVuSans-20"/>
      <use x="235.742188" xlink:href="#DejaVuSans-63"/>
      <use x="290.722656" xlink:href="#DejaVuSans-6f"/>
      <use x="351.904297" xlink:href="#DejaVuSans-6e"/>
      <use x="415.283203" xlink:href="#DejaVuSans-63"/>
      <use x="470.263672" xlink:href="#DejaVuSans-65"/>
      <use x="531.787109" xlink:href="#DejaVuSans-6e"/>
      <use x="595.166016" xlink:href="#DejaVuSans-74"/>
      <use x="634.375" xlink:href="#DejaVuSans-72"/>
      <use x="675.488281" xlink:href="#DejaVuSans-61"/>
      <use x="736.767578" xlink:href="#DejaVuSans-74"/>
      <use x="775.976562" xlink:href="#DejaVuSans-69"/>
      <use x="803.759766" xlink:href="#DejaVuSans-6f"/>
      <use x="864.941406" xlink:href="#DejaVuSans-6e"/>
      <use x="928.320312" xlink:href="#DejaVuSans-20"/>
      <use x="960.107422" xlink:href="#DejaVuSans-5b"/>
      <use x="999.121094" xlink:href="#DejaVuSans-6d"/>
      <use x="1096.533203" xlink:href="#DejaVuSans-4d"/>
      <use x="1182.8125" xlink:href="#DejaVuSans-5d"/>
     </g>
    </g>
   </g>
   <g id="line2d_18">
    <path clip-path="url(#p0666f1fea3)" d="M 160.247796 287.44 
L 160.247796 25.44 
" style="fill:none;stroke:#000000;stroke-linecap:square;stroke-width:1.5;"/>
   </g>
   <g id="line2d_19">
    <path clip-path="url(#p0666f1fea3)" d="M 409.536933 287.44 
L 409.536933 25.44 
" style="fill:none;stroke:#000000;stroke-linecap:square;stroke-width:1.5;"/>
   </g>
   <g id="line2d_20">
    <path clip-path="url(#p0666f1fea3)" d="M 54.2 275.530909 
L 426.457739 275.530909 
" style="fill:none;stroke:#000000;stroke-linecap:square;stroke-width:1.5;"/>
   </g>
   <g id="line2d_21">
    <path clip-path="url(#p0666f1fea3)" d="M 54.2 37.349091 
L 426.457739 37.349091 
" style="fill:none;stroke:#000000;stroke-linecap:square;stroke-width:1.5;"/>
   </g>
   <g id="line2d_22">
    <path clip-path="url(#p0666f1fea3)" d="M 71.120806 267.622788 
L 74.539151 267.498678 
L 77.957496 267.374567 
L 81.37584 267.250457 
L 84.794185 267.126347 
L 88.21253 267.002237 
L 91.630875 266.878126 
L 95.049219 266.754016 
L 98.467564 266.629906 
L 101.885909 266.505795 
L 105.304253 266.381685 
L 108.722598 266.257575 
L 112.140943 266.133465 
L 115.559288 266.009354 
L 118.977632 265.885244 
L 122.395977 265.761134 
L 125.814322 265.637024 
L 129.232666 265.512913 
L 132.651011 265.388803 
L 136.069356 265.264693 
L 139.487701 265.140582 
L 142.906045 265.016472 
L 146.32439 264.892362 
L 149.742735 264.768252 
L 153.161079 264.644141 
L 156.579424 264.520031 
L 159.997769 264.395921 
L 163.416114 264.271811 
L 166.834458 264.1477 
L 170.252803 264.02359 
L 173.671148 263.89948 
L 177.089492 263.775369 
L 180.507837 263.651259 
L 183.926182 263.527149 
L 187.344527 263.403039 
L 190.762871 263.278928 
L 194.181216 263.154818 
L 197.599561 263.030708 
L 201.017905 262.906598 
L 204.43625 262.782487 
L 207.854595 262.658377 
L 211.272939 262.534267 
L 214.691284 262.410156 
L 218.109629 262.286046 
L 221.527974 262.161936 
L 224.946318 262.037826 
L 228.364663 261.913715 
L 231.783008 261.789605 
L 235.201352 261.665495 
L 238.619697 261.541385 
L 242.038042 261.417274 
L 245.456387 261.293164 
L 248.874731 261.169054 
L 252.293076 261.044943 
L 255.711421 260.920833 
L 259.129765 260.796723 
L 262.54811 260.672613 
L 265.966455 260.548502 
L 269.3848 260.424392 
L 272.803144 260.300282 
L 276.221489 260.176172 
L 279.639834 260.052061 
L 283.058178 259.927951 
L 286.476523 259.803841 
L 289.894868 259.67973 
L 293.313213 259.55562 
L 296.731557 259.43151 
L 300.149902 259.3074 
L 303.568247 259.183289 
L 306.986591 259.059179 
L 310.404936 258.935069 
L 313.823281 258.810959 
L 317.241626 258.686848 
L 320.65997 258.562738 
L 324.078315 258.438628 
L 327.49666 258.314517 
L 330.915004 258.190407 
L 334.333349 258.066297 
L 337.751694 257.942187 
L 341.170039 257.818076 
L 344.588383 257.693966 
L 348.006728 257.569856 
L 351.425073 257.445746 
L 354.843417 257.321635 
L 358.261762 257.197525 
L 361.680107 257.073415 
L 365.098452 256.949304 
L 368.516796 256.825194 
L 371.935141 256.701084 
L 375.353486 256.576974 
L 378.77183 256.452863 
L 382.190175 256.328753 
L 385.60852 256.204643 
L 389.026864 256.080533 
L 392.445209 255.956422 
L 395.863554 255.832312 
L 399.281899 255.708202 
L 402.700243 255.584091 
L 406.118588 255.459981 
L 409.536933 255.335871 
" style="fill:none;stroke:#1f77b4;stroke-linecap:square;"/>
   </g>
   <g id="line2d_23">
    <defs>
     <path d="M 0 1.25 
C 0.331504 1.25 0.649475 1.118292 0.883883 0.883883 
C 1.118292 0.649475 1.25 0.331504 1.25 0 
C 1.25 -0.331504 1.118292 -0.649475 0.883883 -0.883883 
C 0.649475 -1.118292 0.331504 -1.25 0 -1.25 
C -0.331504 -1.25 -0.649475 -1.118292 -0.883883 -0.883883 
C -1.118292 -0.649475 -1.25 -0.331504 -1.25 0 
C -1.25 0.331504 -1.118292 0.649475 -0.883883 0.883883 
C -0.649475 1.118292 -0.331504 1.25 0 1.25 
z
" id="mc281f27bf8" style="stroke:#000000;"/>
    </defs>
    <g clip-path="url(#p0666f1fea3)">
     <use style="stroke:#000000;" x="71.120806" xlink:href="#mc281f27bf8" y="267.622788"/>
     <use style="stroke:#000000;" x="409.536933" xlink:href="#mc281f27bf8" y="255.335871"/>
    </g>
   </g>
   <g id="line2d_24">
    <path clip-path="url(#p0666f1fea3)" d="M 71.120806 263.705971 
L 74.539151 263.076424 
L 77.957496 262.446877 
L 81.37584 261.817329 
L 84.794185 261.187782 
L 88.21253 260.558235 
L 91.630875 259.928688 
L 95.049219 259.299141 
L 98.467564 258.669594 
L 101.885909 258.040047 
L 105.304253 257.4105 
L 108.722598 256.780953 
L 112.140943 256.151406 
L 115.559288 255.521859 
L 118.977632 254.892312 
L 122.395977 254.262765 
L 125.814322 253.633218 
L 129.232666 253.003671 
L 132.651011 252.374124 
L 136.069356 251.744577 
L 139.487701 251.11503 
L 142.906045 250.485483 
L 146.32439 249.855936 
L 149.742735 249.226388 
L 153.161079 248.596841 
L 156.579424 247.967294 
L 159.997769 247.337747 
L 163.416114 246.7082 
L 166.834458 246.078653 
L 170.252803 245.449106 
L 173.671148 244.819559 
L 177.089492 244.190012 
L 180.507837 243.560465 
L 183.926182 242.930918 
L 187.344527 242.301371 
L 190.762871 241.671824 
L 194.181216 241.042277 
L 197.599561 240.41273 
L 201.017905 239.783183 
L 204.43625 239.153636 
L 207.854595 238.524089 
L 211.272939 237.894542 
L 214.691284 237.264995 
L 218.109629 236.635447 
L 221.527974 236.0059 
L 224.946318 235.376353 
L 228.364663 234.746806 
L 231.783008 234.117259 
L 235.201352 233.487712 
L 238.619697 232.858165 
L 242.038042 232.228618 
L 245.456387 231.599071 
L 248.874731 230.969524 
L 252.293076 230.339977 
L 255.711421 229.71043 
L 259.129765 229.080883 
L 262.54811 228.451336 
L 265.966455 227.821789 
L 269.3848 227.192242 
L 272.803144 226.562695 
L 276.221489 225.933148 
L 279.639834 225.303601 
L 283.058178 224.674054 
L 286.476523 224.044506 
L 289.894868 223.414959 
L 293.313213 222.785412 
L 296.731557 222.155865 
L 300.149902 221.526318 
L 303.568247 220.896771 
L 306.986591 220.267224 
L 310.404936 219.637677 
L 313.823281 219.00813 
L 317.241626 218.378583 
L 320.65997 217.749036 
L 324.078315 217.119489 
L 327.49666 216.489942 
L 330.915004 215.860395 
L 334.333349 215.230848 
L 337.751694 214.601301 
L 341.170039 213.971754 
L 344.588383 213.342207 
L 348.006728 212.71266 
L 351.425073 212.083113 
L 354.843417 211.453566 
L 358.261762 210.824018 
L 361.680107 210.194471 
L 365.098452 209.564924 
L 368.516796 208.935377 
L 371.935141 208.30583 
L 375.353486 207.676283 
L 378.77183 207.046736 
L 382.190175 206.417189 
L 385.60852 205.787642 
L 389.026864 205.158095 
L 392.445209 204.528548 
L 395.863554 203.899001 
L 399.281899 203.269454 
L 402.700243 202.639907 
L 406.118588 202.01036 
L 409.536933 201.380813 
" style="fill:none;stroke:#ff7f0e;stroke-linecap:square;"/>
   </g>
   <g id="line2d_25">
    <g clip-path="url(#p0666f1fea3)">
     <use style="stroke:#000000;" x="71.120806" xlink:href="#mc281f27bf8" y="263.705971"/>
     <use style="stroke:#000000;" x="409.536933" xlink:href="#mc281f27bf8" y="201.380813"/>
    </g>
   </g>
   <g id="line2d_26">
    <path clip-path="url(#p0666f1fea3)" d="M 71.120806 232.934403 
L 74.539151 232.110113 
L 77.957496 231.285823 
L 81.37584 230.461533 
L 84.794185 229.637242 
L 88.21253 228.812952 
L 91.630875 227.988662 
L 95.049219 227.164372 
L 98.467564 226.340082 
L 101.885909 225.515791 
L 105.304253 224.691501 
L 108.722598 223.867211 
L 112.140943 223.042921 
L 115.559288 222.218631 
L 118.977632 221.394341 
L 122.395977 220.57005 
L 125.814322 219.74576 
L 129.232666 218.92147 
L 132.651011 218.09718 
L 136.069356 217.27289 
L 139.487701 216.4486 
L 142.906045 215.624309 
L 146.32439 214.800019 
L 149.742735 213.975729 
L 153.161079 213.151439 
L 156.579424 212.327149 
L 159.997769 211.502858 
L 163.416114 210.678568 
L 166.834458 209.854278 
L 170.252803 209.029988 
L 173.671148 208.205698 
L 177.089492 207.381408 
L 180.507837 206.557117 
L 183.926182 205.732827 
L 187.344527 204.908537 
L 190.762871 204.084247 
L 194.181216 203.259957 
L 197.599561 202.435667 
L 201.017905 201.611376 
L 204.43625 200.787086 
L 207.854595 199.962796 
L 211.272939 199.138506 
L 214.691284 198.314216 
L 218.109629 197.489926 
L 221.527974 196.665635 
L 224.946318 195.841345 
L 228.364663 195.017055 
L 231.783008 194.192765 
L 235.201352 193.368475 
L 238.619697 192.544184 
L 242.038042 191.719894 
L 245.456387 190.895604 
L 248.874731 190.071314 
L 252.293076 189.247024 
L 255.711421 188.422734 
L 259.129765 187.598443 
L 262.54811 186.774153 
L 265.966455 185.949863 
L 269.3848 185.125573 
L 272.803144 184.301283 
L 276.221489 183.476993 
L 279.639834 182.652702 
L 283.058178 181.828412 
L 286.476523 181.004122 
L 289.894868 180.179832 
L 293.313213 179.355542 
L 296.731557 178.531251 
L 300.149902 177.706961 
L 303.568247 176.882671 
L 306.986591 176.058381 
L 310.404936 175.234091 
L 313.823281 174.409801 
L 317.241626 173.58551 
L 320.65997 172.76122 
L 324.078315 171.93693 
L 327.49666 171.11264 
L 330.915004 170.28835 
L 334.333349 169.46406 
L 337.751694 168.639769 
L 341.170039 167.815479 
L 344.588383 166.991189 
L 348.006728 166.166899 
L 351.425073 165.342609 
L 354.843417 164.518318 
L 358.261762 163.694028 
L 361.680107 162.869738 
L 365.098452 162.045448 
L 368.516796 161.221158 
L 371.935141 160.396868 
L 375.353486 159.572577 
L 378.77183 158.748287 
L 382.190175 157.923997 
L 385.60852 157.099707 
L 389.026864 156.275417 
L 392.445209 155.451127 
L 395.863554 154.626836 
L 399.281899 153.802546 
L 402.700243 152.978256 
L 406.118588 152.153966 
L 409.536933 151.329676 
" style="fill:none;stroke:#2ca02c;stroke-linecap:square;"/>
   </g>
   <g id="line2d_27">
    <g clip-path="url(#p0666f1fea3)">
     <use style="stroke:#000000;" x="71.120806" xlink:href="#mc281f27bf8" y="232.934403"/>
     <use style="stroke:#000000;" x="409.536933" xlink:href="#mc281f27bf8" y="151.329676"/>
    </g>
   </g>
   <g id="line2d_28">
    <path clip-path="url(#p0666f1fea3)" d="M 71.120806 231.592153 
L 74.539151 229.981504 
L 77.957496 228.370855 
L 81.37584 226.760206 
L 84.794185 225.149557 
L 88.21253 223.538908 
L 91.630875 221.928259 
L 95.049219 220.31761 
L 98.467564 218.706962 
L 101.885909 217.096313 
L 105.304253 215.485664 
L 108.722598 213.875015 
L 112.140943 212.264366 
L 115.559288 210.653717 
L 118.977632 209.043068 
L 122.395977 207.432419 
L 125.814322 205.82177 
L 129.232666 204.211121 
L 132.651011 202.600472 
L 136.069356 200.989823 
L 139.487701 199.379174 
L 142.906045 197.768525 
L 146.32439 196.157876 
L 149.742735 194.547227 
L 153.161079 192.936578 
L 156.579424 191.325929 
L 159.997769 189.71528 
L 163.416114 188.104631 
L 166.834458 186.493982 
L 170.252803 184.883333 
L 173.671148 183.272684 
L 177.089492 181.662035 
L 180.507837 180.051386 
L 183.926182 178.440738 
L 187.344527 176.830089 
L 190.762871 175.21944 
L 194.181216 173.608791 
L 197.599561 171.998142 
L 201.017905 170.387493 
L 204.43625 168.776844 
L 207.854595 167.166195 
L 211.272939 165.555546 
L 214.691284 163.944897 
L 218.109629 162.334248 
L 221.527974 160.723599 
L 224.946318 159.11295 
L 228.364663 157.502301 
L 231.783008 155.891652 
L 235.201352 154.281003 
L 238.619697 152.670354 
L 242.038042 151.059705 
L 245.456387 149.449056 
L 248.874731 147.838407 
L 252.293076 146.227758 
L 255.711421 144.617109 
L 259.129765 143.00646 
L 262.54811 141.395811 
L 265.966455 139.785163 
L 269.3848 138.174514 
L 272.803144 136.563865 
L 276.221489 134.953216 
L 279.639834 133.342567 
L 283.058178 131.731918 
L 286.476523 130.121269 
L 289.894868 128.51062 
L 293.313213 126.899971 
L 296.731557 125.289322 
L 300.149902 123.678673 
L 303.568247 122.068024 
L 306.986591 120.457375 
L 310.404936 118.846726 
L 313.823281 117.236077 
L 317.241626 115.625428 
L 320.65997 114.014779 
L 324.078315 112.40413 
L 327.49666 110.793481 
L 330.915004 109.182832 
L 334.333349 107.572183 
L 337.751694 105.961534 
L 341.170039 104.350885 
L 344.588383 102.740236 
L 348.006728 101.129588 
L 351.425073 99.518939 
L 354.843417 97.90829 
L 358.261762 96.297641 
L 361.680107 94.686992 
L 365.098452 93.076343 
L 368.516796 91.465694 
L 371.935141 89.855045 
L 375.353486 88.244396 
L 378.77183 86.633747 
L 382.190175 85.023098 
L 385.60852 83.412449 
L 389.026864 81.8018 
L 392.445209 80.191151 
L 395.863554 78.580502 
L 399.281899 76.969853 
L 402.700243 75.359204 
L 406.118588 73.748555 
L 409.536933 72.137906 
" style="fill:none;stroke:#d62728;stroke-linecap:square;"/>
   </g>
   <g id="line2d_29">
    <g clip-path="url(#p0666f1fea3)">
     <use style="stroke:#000000;" x="71.120806" xlink:href="#mc281f27bf8" y="231.592153"/>
     <use style="stroke:#000000;" x="409.536933" xlink:href="#mc281f27bf8" y="72.137906"/>
    </g>
   </g>
   <g id="patch_3">
    <path d="M 54.2 287.44 
L 54.2 25.44 
" style="fill:none;stroke:#000000;stroke-linecap:square;stroke-linejoin:miter;stroke-width:0.8;"/>
   </g>
   <g id="patch_4">
    <path d="M 426.457739 287.44 
L 426.457739 25.44 
" style="fill:none;stroke:#000000;stroke-linecap:square;stroke-linejoin:miter;stroke-width:0.8;"/>
   </g>
   <g id="patch_5">
    <path d="M 54.2 287.44 
L 426.457739 287.44 
" style="fill:none;stroke:#000000;stroke-linecap:square;stroke-linejoin:miter;stroke-width:0.8;"/>
   </g>
   <g id="patch_6">
    <path d="M 54.2 25.44 
L 426.457739 25.44 
" style="fill:none;stroke:#000000;stroke-linecap:square;stroke-linejoin:miter;stroke-width:0.8;"/>
   </g>
   <g id="text_20">
    <!-- Mode -->
    <g transform="translate(223.979807 19.44)scale(0.12 -0.12)">
     <defs>
      <path d="M 2906 2969 
L 2906 4863 
L 3481 4863 
L 3481 0 
L 2906 0 
L 2906 525 
Q 2725 213 2448 61 
Q 2172 -91 1784 -91 
Q 1150 -91 751 415 
Q 353 922 353 1747 
Q 353 2572 751 3078 
Q 1150 3584 1784 3584 
Q 2172 3584 2448 3432 
Q 2725 3281 2906 2969 
z
M 947 1747 
Q 947 1113 1208 752 
Q 1469 391 1925 391 
Q 2381 391 2643 752 
Q 2906 1113 2906 1747 
Q 2906 2381 2643 2742 
Q 2381 3103 1925 3103 
Q 1469 3103 1208 2742 
Q 947 2381 947 1747 
z
" id="DejaVuSans-64" transform="scale(0.015625)"/>
     </defs>
     <use xlink:href="#DejaVuSans-4d"/>
     <use x="86.279297" xlink:href="#DejaVuSans-6f"/>
     <use x="147.460938" xlink:href="#DejaVuSans-64"/>
     <use x="210.9375" xlink:href="#DejaVuSans-65"/>
    </g>
   </g>
   <g id="legend_1">
    <g id="patch_7">
     <path d="M 61.2 187.29625 
L 133.625 187.29625 
Q 135.625 187.29625 135.625 185.29625 
L 135.625 127.58375 
Q 135.625 125.58375 133.625 125.58375 
L 61.2 125.58375 
Q 59.2 125.58375 59.2 127.58375 
L 59.2 185.29625 
Q 59.2 187.29625 61.2 187.29625 
z
" style="fill:#ffffff;opacity:0.8;stroke:#cccccc;stroke-linejoin:miter;"/>
    </g>
    <g id="line2d_30">
     <path d="M 63.2 133.682187 
L 83.2 133.682187 
" style="fill:none;stroke:#1f77b4;stroke-linecap:square;"/>
    </g>
    <g id="line2d_31"/>
    <g id="text_21">
     <!-- comp. 1 -->
     <g transform="translate(91.2 137.182187)scale(0.1 -0.1)">
      <defs>
       <path d="M 1159 525 
L 1159 -1331 
L 581 -1331 
L 581 3500 
L 1159 3500 
L 1159 2969 
Q 1341 3281 1617 3432 
Q 1894 3584 2278 3584 
Q 2916 3584 3314 3078 
Q 3713 2572 3713 1747 
Q 3713 922 3314 415 
Q 2916 -91 2278 -91 
Q 1894 -91 1617 61 
Q 1341 213 1159 525 
z
M 3116 1747 
Q 3116 2381 2855 2742 
Q 2594 3103 2138 3103 
Q 1681 3103 1420 2742 
Q 1159 2381 1159 1747 
Q 1159 1113 1420 752 
Q 1681 391 2138 391 
Q 2594 391 2855 752 
Q 3116 1113 3116 1747 
z
" id="DejaVuSans-70" transform="scale(0.015625)"/>
      </defs>
      <use xlink:href="#DejaVuSans-63"/>
      <use x="54.980469" xlink:href="#DejaVuSans-6f"/>
      <use x="116.162109" xlink:href="#DejaVuSans-6d"/>
      <use x="213.574219" xlink:href="#DejaVuSans-70"/>
      <use x="277.050781" xlink:href="#DejaVuSans-2e"/>
      <use x="308.837891" xlink:href="#DejaVuSans-20"/>
      <use x="340.625" xlink:href="#DejaVuSans-31"/>
     </g>
    </g>
    <g id="line2d_32">
     <path d="M 63.2 148.360313 
L 83.2 148.360313 
" style="fill:none;stroke:#ff7f0e;stroke-linecap:square;"/>
    </g>
    <g id="line2d_33"/>
    <g id="text_22">
     <!-- comp. 2 -->
     <g transform="translate(91.2 151.860313)scale(0.1 -0.1)">
      <use xlink:href="#DejaVuSans-63"/>
      <use x="54.980469" xlink:href="#DejaVuSans-6f"/>
      <use x="116.162109" xlink:href="#DejaVuSans-6d"/>
      <use x="213.574219" xlink:href="#DejaVuSans-70"/>
      <use x="277.050781" xlink:href="#DejaVuSans-2e"/>
      <use x="308.837891" xlink:href="#DejaVuSans-20"/>
      <use x="340.625" xlink:href="#DejaVuSans-32"/>
     </g>
    </g>
    <g id="line2d_34">
     <path d="M 63.2 163.038437 
L 83.2 163.038437 
" style="fill:none;stroke:#2ca02c;stroke-linecap:square;"/>
    </g>
    <g id="line2d_35"/>
    <g id="text_23">
     <!-- comp. 3 -->
     <g transform="translate(91.2 166.538437)scale(0.1 -0.1)">
      <defs>
       <path d="M 2597 2516 
Q 3050 2419 3304 2112 
Q 3559 1806 3559 1356 
Q 3559 666 3084 287 
Q 2609 -91 1734 -91 
Q 1441 -91 1130 -33 
Q 819 25 488 141 
L 488 750 
Q 750 597 1062 519 
Q 1375 441 1716 441 
Q 2309 441 2620 675 
Q 2931 909 2931 1356 
Q 2931 1769 2642 2001 
Q 2353 2234 1838 2234 
L 1294 2234 
L 1294 2753 
L 1863 2753 
Q 2328 2753 2575 2939 
Q 2822 3125 2822 3475 
Q 2822 3834 2567 4026 
Q 2313 4219 1838 4219 
Q 1578 4219 1281 4162 
Q 984 4106 628 3988 
L 628 4550 
Q 988 4650 1302 4700 
Q 1616 4750 1894 4750 
Q 2613 4750 3031 4423 
Q 3450 4097 3450 3541 
Q 3450 3153 3228 2886 
Q 3006 2619 2597 2516 
z
" id="DejaVuSans-33" transform="scale(0.015625)"/>
      </defs>
      <use xlink:href="#DejaVuSans-63"/>
      <use x="54.980469" xlink:href="#DejaVuSans-6f"/>
      <use x="116.162109" xlink:href="#DejaVuSans-6d"/>
      <use x="213.574219" xlink:href="#DejaVuSans-70"/>
      <use x="277.050781" xlink:href="#DejaVuSans-2e"/>
      <use x="308.837891" xlink:href="#DejaVuSans-20"/>
      <use x="340.625" xlink:href="#DejaVuSans-33"/>
     </g>
    </g>
    <g id="line2d_36">
     <path d="M 63.2 177.716563 
L 83.2 177.716563 
" style="fill:none;stroke:#d62728;stroke-linecap:square;"/>
    </g>
    <g id="line2d_37"/>
    <g id="text_24">
     <!-- comp. 4 -->
     <g transform="translate(91.2 181.216563)scale(0.1 -0.1)">
      <use xlink:href="#DejaVuSans-63"/>
      <use x="54.980469" xlink:href="#DejaVuSans-6f"/>
      <use x="116.162109" xlink:href="#DejaVuSans-6d"/>
      <use x="213.574219" xlink:href="#DejaVuSans-70"/>
      <use x="277.050781" xlink:href="#DejaVuSans-2e"/>
      <use x="308.837891" xlink:href="#DejaVuSans-20"/>
      <use x="340.625" xlink:href="#DejaVuSans-34"/>
     </g>
    </g>
   </g>
  </g>
  <g id="axes_2">
   <g id="patch_8">
    <path d="M 479.225 287.44 
L 851.482739 287.44 
L 851.482739 25.44 
L 479.225 25.44 
z
" style="fill:#ffffff;"/>
   </g>
   <g id="matplotlib.axis_3">
    <g id="xtick_10">
     <g id="line2d_38">
      <g>
       <use style="stroke:#000000;stroke-width:0.8;" x="496.145806" xlink:href="#ma56ec904de" y="287.44"/>
      </g>
     </g>
     <g id="text_25">
      <!-- 0.00 -->
      <g transform="translate(485.012994 302.038437)scale(0.1 -0.1)">
       <use xlink:href="#DejaVuSans-30"/>
       <use x="63.623047" xlink:href="#DejaVuSans-2e"/>
       <use x="95.410156" xlink:href="#DejaVuSans-30"/>
       <use x="159.033203" xlink:href="#DejaVuSans-30"/>
      </g>
     </g>
    </g>
    <g id="xtick_11">
     <g id="line2d_39">
      <g>
       <use style="stroke:#000000;stroke-width:0.8;" x="539.119283" xlink:href="#ma56ec904de" y="287.44"/>
      </g>
     </g>
     <g id="text_26">
      <!-- 0.02 -->
      <g transform="translate(527.98647 302.038437)scale(0.1 -0.1)">
       <use xlink:href="#DejaVuSans-30"/>
       <use x="63.623047" xlink:href="#DejaVuSans-2e"/>
       <use x="95.410156" xlink:href="#DejaVuSans-30"/>
       <use x="159.033203" xlink:href="#DejaVuSans-32"/>
      </g>
     </g>
    </g>
    <g id="xtick_12">
     <g id="line2d_40">
      <g>
       <use style="stroke:#000000;stroke-width:0.8;" x="582.092759" xlink:href="#ma56ec904de" y="287.44"/>
      </g>
     </g>
     <g id="text_27">
      <!-- 0.04 -->
      <g transform="translate(570.959947 302.038437)scale(0.1 -0.1)">
       <use xlink:href="#DejaVuSans-30"/>
       <use x="63.623047" xlink:href="#DejaVuSans-2e"/>
       <use x="95.410156" xlink:href="#DejaVuSans-30"/>
       <use x="159.033203" xlink:href="#DejaVuSans-34"/>
      </g>
     </g>
    </g>
    <g id="xtick_13">
     <g id="line2d_41">
      <g>
       <use style="stroke:#000000;stroke-width:0.8;" x="625.066235" xlink:href="#ma56ec904de" y="287.44"/>
      </g>
     </g>
     <g id="text_28">
      <!-- 0.06 -->
      <g transform="translate(613.933423 302.038437)scale(0.1 -0.1)">
       <use xlink:href="#DejaVuSans-30"/>
       <use x="63.623047" xlink:href="#DejaVuSans-2e"/>
       <use x="95.410156" xlink:href="#DejaVuSans-30"/>
       <use x="159.033203" xlink:href="#DejaVuSans-36"/>
      </g>
     </g>
    </g>
    <g id="xtick_14">
     <g id="line2d_42">
      <g>
       <use style="stroke:#000000;stroke-width:0.8;" x="668.039712" xlink:href="#ma56ec904de" y="287.44"/>
      </g>
     </g>
     <g id="text_29">
      <!-- 0.08 -->
      <g transform="translate(656.906899 302.038437)scale(0.1 -0.1)">
       <use xlink:href="#DejaVuSans-30"/>
       <use x="63.623047" xlink:href="#DejaVuSans-2e"/>
       <use x="95.410156" xlink:href="#DejaVuSans-30"/>
       <use x="159.033203" xlink:href="#DejaVuSans-38"/>
      </g>
     </g>
    </g>
    <g id="xtick_15">
     <g id="line2d_43">
      <g>
       <use style="stroke:#000000;stroke-width:0.8;" x="711.013188" xlink:href="#ma56ec904de" y="287.44"/>
      </g>
     </g>
     <g id="text_30">
      <!-- 0.10 -->
      <g transform="translate(699.880376 302.038437)scale(0.1 -0.1)">
       <use xlink:href="#DejaVuSans-30"/>
       <use x="63.623047" xlink:href="#DejaVuSans-2e"/>
       <use x="95.410156" xlink:href="#DejaVuSans-31"/>
       <use x="159.033203" xlink:href="#DejaVuSans-30"/>
      </g>
     </g>
    </g>
    <g id="xtick_16">
     <g id="line2d_44">
      <g>
       <use style="stroke:#000000;stroke-width:0.8;" x="753.986665" xlink:href="#ma56ec904de" y="287.44"/>
      </g>
     </g>
     <g id="text_31">
      <!-- 0.12 -->
      <g transform="translate(742.853852 302.038437)scale(0.1 -0.1)">
       <use xlink:href="#DejaVuSans-30"/>
       <use x="63.623047" xlink:href="#DejaVuSans-2e"/>
       <use x="95.410156" xlink:href="#DejaVuSans-31"/>
       <use x="159.033203" xlink:href="#DejaVuSans-32"/>
      </g>
     </g>
    </g>
    <g id="xtick_17">
     <g id="line2d_45">
      <g>
       <use style="stroke:#000000;stroke-width:0.8;" x="796.960141" xlink:href="#ma56ec904de" y="287.44"/>
      </g>
     </g>
     <g id="text_32">
      <!-- 0.14 -->
      <g transform="translate(785.827328 302.038437)scale(0.1 -0.1)">
       <use xlink:href="#DejaVuSans-30"/>
       <use x="63.623047" xlink:href="#DejaVuSans-2e"/>
       <use x="95.410156" xlink:href="#DejaVuSans-31"/>
       <use x="159.033203" xlink:href="#DejaVuSans-34"/>
      </g>
     </g>
    </g>
    <g id="xtick_18">
     <g id="line2d_46">
      <g>
       <use style="stroke:#000000;stroke-width:0.8;" x="839.933617" xlink:href="#ma56ec904de" y="287.44"/>
      </g>
     </g>
     <g id="text_33">
      <!-- 0.16 -->
      <g transform="translate(828.800805 302.038437)scale(0.1 -0.1)">
       <use xlink:href="#DejaVuSans-30"/>
       <use x="63.623047" xlink:href="#DejaVuSans-2e"/>
       <use x="95.410156" xlink:href="#DejaVuSans-31"/>
       <use x="159.033203" xlink:href="#DejaVuSans-36"/>
      </g>
     </g>
    </g>
    <g id="text_34">
     <!-- Protein concentration [mM] -->
     <g transform="translate(596.936682 315.716563)scale(0.1 -0.1)">
      <use xlink:href="#DejaVuSans-50"/>
      <use x="58.552734" xlink:href="#DejaVuSans-72"/>
      <use x="97.416016" xlink:href="#DejaVuSans-6f"/>
      <use x="158.597656" xlink:href="#DejaVuSans-74"/>
      <use x="197.806641" xlink:href="#DejaVuSans-65"/>
      <use x="259.330078" xlink:href="#DejaVuSans-69"/>
      <use x="287.113281" xlink:href="#DejaVuSans-6e"/>
      <use x="350.492188" xlink:href="#DejaVuSans-20"/>
      <use x="382.279297" xlink:href="#DejaVuSans-63"/>
      <use x="437.259766" xlink:href="#DejaVuSans-6f"/>
      <use x="498.441406" xlink:href="#DejaVuSans-6e"/>
      <use x="561.820312" xlink:href="#DejaVuSans-63"/>
      <use x="616.800781" xlink:href="#DejaVuSans-65"/>
      <use x="678.324219" xlink:href="#DejaVuSans-6e"/>
      <use x="741.703125" xlink:href="#DejaVuSans-74"/>
      <use x="780.912109" xlink:href="#DejaVuSans-72"/>
      <use x="822.025391" xlink:href="#DejaVuSans-61"/>
      <use x="883.304688" xlink:href="#DejaVuSans-74"/>
      <use x="922.513672" xlink:href="#DejaVuSans-69"/>
      <use x="950.296875" xlink:href="#DejaVuSans-6f"/>
      <use x="1011.478516" xlink:href="#DejaVuSans-6e"/>
      <use x="1074.857422" xlink:href="#DejaVuSans-20"/>
      <use x="1106.644531" xlink:href="#DejaVuSans-5b"/>
      <use x="1145.658203" xlink:href="#DejaVuSans-6d"/>
      <use x="1243.070312" xlink:href="#DejaVuSans-4d"/>
      <use x="1329.349609" xlink:href="#DejaVuSans-5d"/>
     </g>
    </g>
   </g>
   <g id="matplotlib.axis_4">
    <g id="ytick_9">
     <g id="line2d_47">
      <g>
       <use style="stroke:#000000;stroke-width:0.8;" x="479.225" xlink:href="#m1c04f69a0c" y="283.460855"/>
      </g>
     </g>
     <g id="text_35">
      <!-- 0 -->
      <g transform="translate(465.8625 287.260074)scale(0.1 -0.1)">
       <use xlink:href="#DejaVuSans-30"/>
      </g>
     </g>
    </g>
    <g id="ytick_10">
     <g id="line2d_48">
      <g>
       <use style="stroke:#000000;stroke-width:0.8;" x="479.225" xlink:href="#m1c04f69a0c" y="243.477657"/>
      </g>
     </g>
     <g id="text_36">
      <!-- 50 -->
      <g transform="translate(459.5 247.276876)scale(0.1 -0.1)">
       <use xlink:href="#DejaVuSans-35"/>
       <use x="63.623047" xlink:href="#DejaVuSans-30"/>
      </g>
     </g>
    </g>
    <g id="ytick_11">
     <g id="line2d_49">
      <g>
       <use style="stroke:#000000;stroke-width:0.8;" x="479.225" xlink:href="#m1c04f69a0c" y="203.494459"/>
      </g>
     </g>
     <g id="text_37">
      <!-- 100 -->
      <g transform="translate(453.1375 207.293678)scale(0.1 -0.1)">
       <use xlink:href="#DejaVuSans-31"/>
       <use x="63.623047" xlink:href="#DejaVuSans-30"/>
       <use x="127.246094" xlink:href="#DejaVuSans-30"/>
      </g>
     </g>
    </g>
    <g id="ytick_12">
     <g id="line2d_50">
      <g>
       <use style="stroke:#000000;stroke-width:0.8;" x="479.225" xlink:href="#m1c04f69a0c" y="163.511262"/>
      </g>
     </g>
     <g id="text_38">
      <!-- 150 -->
      <g transform="translate(453.1375 167.31048)scale(0.1 -0.1)">
       <use xlink:href="#DejaVuSans-31"/>
       <use x="63.623047" xlink:href="#DejaVuSans-35"/>
       <use x="127.246094" xlink:href="#DejaVuSans-30"/>
      </g>
     </g>
    </g>
    <g id="ytick_13">
     <g id="line2d_51">
      <g>
       <use style="stroke:#000000;stroke-width:0.8;" x="479.225" xlink:href="#m1c04f69a0c" y="123.528064"/>
      </g>
     </g>
     <g id="text_39">
      <!-- 200 -->
      <g transform="translate(453.1375 127.327283)scale(0.1 -0.1)">
       <use xlink:href="#DejaVuSans-32"/>
       <use x="63.623047" xlink:href="#DejaVuSans-30"/>
       <use x="127.246094" xlink:href="#DejaVuSans-30"/>
      </g>
     </g>
    </g>
    <g id="ytick_14">
     <g id="line2d_52">
      <g>
       <use style="stroke:#000000;stroke-width:0.8;" x="479.225" xlink:href="#m1c04f69a0c" y="83.544866"/>
      </g>
     </g>
     <g id="text_40">
      <!-- 250 -->
      <g transform="translate(453.1375 87.344085)scale(0.1 -0.1)">
       <use xlink:href="#DejaVuSans-32"/>
       <use x="63.623047" xlink:href="#DejaVuSans-35"/>
       <use x="127.246094" xlink:href="#DejaVuSans-30"/>
      </g>
     </g>
    </g>
    <g id="ytick_15">
     <g id="line2d_53">
      <g>
       <use style="stroke:#000000;stroke-width:0.8;" x="479.225" xlink:href="#m1c04f69a0c" y="43.561668"/>
      </g>
     </g>
     <g id="text_41">
      <!-- 300 -->
      <g transform="translate(453.1375 47.360887)scale(0.1 -0.1)">
       <use xlink:href="#DejaVuSans-33"/>
       <use x="63.623047" xlink:href="#DejaVuSans-30"/>
       <use x="127.246094" xlink:href="#DejaVuSans-30"/>
      </g>
     </g>
    </g>
    <g id="text_42">
     <!-- Confidence parameter -->
     <g transform="translate(447.057813 212.54)rotate(-90)scale(0.1 -0.1)">
      <defs>
       <path d="M 4122 4306 
L 4122 3641 
Q 3803 3938 3442 4084 
Q 3081 4231 2675 4231 
Q 1875 4231 1450 3742 
Q 1025 3253 1025 2328 
Q 1025 1406 1450 917 
Q 1875 428 2675 428 
Q 3081 428 3442 575 
Q 3803 722 4122 1019 
L 4122 359 
Q 3791 134 3420 21 
Q 3050 -91 2638 -91 
Q 1578 -91 968 557 
Q 359 1206 359 2328 
Q 359 3453 968 4101 
Q 1578 4750 2638 4750 
Q 3056 4750 3426 4639 
Q 3797 4528 4122 4306 
z
" id="DejaVuSans-43" transform="scale(0.015625)"/>
       <path d="M 2375 4863 
L 2375 4384 
L 1825 4384 
Q 1516 4384 1395 4259 
Q 1275 4134 1275 3809 
L 1275 3500 
L 2222 3500 
L 2222 3053 
L 1275 3053 
L 1275 0 
L 697 0 
L 697 3053 
L 147 3053 
L 147 3500 
L 697 3500 
L 697 3744 
Q 697 4328 969 4595 
Q 1241 4863 1831 4863 
L 2375 4863 
z
" id="DejaVuSans-66" transform="scale(0.015625)"/>
      </defs>
      <use xlink:href="#DejaVuSans-43"/>
      <use x="69.824219" xlink:href="#DejaVuSans-6f"/>
      <use x="131.005859" xlink:href="#DejaVuSans-6e"/>
      <use x="194.384766" xlink:href="#DejaVuSans-66"/>
      <use x="229.589844" xlink:href="#DejaVuSans-69"/>
      <use x="257.373047" xlink:href="#DejaVuSans-64"/>
      <use x="320.849609" xlink:href="#DejaVuSans-65"/>
      <use x="382.373047" xlink:href="#DejaVuSans-6e"/>
      <use x="445.751953" xlink:href="#DejaVuSans-63"/>
      <use x="500.732422" xlink:href="#DejaVuSans-65"/>
      <use x="562.255859" xlink:href="#DejaVuSans-20"/>
      <use x="594.042969" xlink:href="#DejaVuSans-70"/>
      <use x="657.519531" xlink:href="#DejaVuSans-61"/>
      <use x="718.798828" xlink:href="#DejaVuSans-72"/>
      <use x="759.912109" xlink:href="#DejaVuSans-61"/>
      <use x="821.191406" xlink:href="#DejaVuSans-6d"/>
      <use x="918.603516" xlink:href="#DejaVuSans-65"/>
      <use x="980.126953" xlink:href="#DejaVuSans-74"/>
      <use x="1019.335938" xlink:href="#DejaVuSans-65"/>
      <use x="1080.859375" xlink:href="#DejaVuSans-72"/>
     </g>
    </g>
   </g>
   <g id="line2d_54">
    <path clip-path="url(#p4cc9ada6e9)" d="M 585.272796 287.44 
L 585.272796 25.44 
" style="fill:none;stroke:#000000;stroke-linecap:square;stroke-width:1.5;"/>
   </g>
   <g id="line2d_55">
    <path clip-path="url(#p4cc9ada6e9)" d="M 834.561933 287.44 
L 834.561933 25.44 
" style="fill:none;stroke:#000000;stroke-linecap:square;stroke-width:1.5;"/>
   </g>
   <g id="line2d_56">
    <path clip-path="url(#p4cc9ada6e9)" d="M 496.145806 195.743816 
L 499.564151 196.289394 
L 502.982496 196.834971 
L 506.40084 197.380548 
L 509.819185 197.926125 
L 513.23753 198.471702 
L 516.655875 199.017279 
L 520.074219 199.562856 
L 523.492564 200.108434 
L 526.910909 200.654011 
L 530.329253 201.199588 
L 533.747598 201.745165 
L 537.165943 202.290742 
L 540.584288 202.836319 
L 544.002632 203.381896 
L 547.420977 203.927474 
L 550.839322 204.473051 
L 554.257666 205.018628 
L 557.676011 205.564205 
L 561.094356 206.109782 
L 564.512701 206.655359 
L 567.931045 207.200936 
L 571.34939 207.746514 
L 574.767735 208.292091 
L 578.186079 208.837668 
L 581.604424 209.383245 
L 585.022769 209.928822 
L 588.441114 210.474399 
L 591.859458 211.019976 
L 595.277803 211.565554 
L 598.696148 212.111131 
L 602.114492 212.656708 
L 605.532837 213.202285 
L 608.951182 213.747862 
L 612.369527 214.293439 
L 615.787871 214.839016 
L 619.206216 215.384594 
L 622.624561 215.930171 
L 626.042905 216.475748 
L 629.46125 217.021325 
L 632.879595 217.566902 
L 636.297939 218.112479 
L 639.716284 218.658056 
L 643.134629 219.203634 
L 646.552974 219.749211 
L 649.971318 220.294788 
L 653.389663 220.840365 
L 656.808008 221.385942 
L 660.226352 221.931519 
L 663.644697 222.477096 
L 667.063042 223.022674 
L 670.481387 223.568251 
L 673.899731 224.113828 
L 677.318076 224.659405 
L 680.736421 225.204982 
L 684.154765 225.750559 
L 687.57311 226.296136 
L 690.991455 226.841714 
L 694.4098 227.387291 
L 697.828144 227.932868 
L 701.246489 228.478445 
L 704.664834 229.024022 
L 708.083178 229.569599 
L 711.501523 230.115176 
L 714.919868 230.660753 
L 718.338213 231.206331 
L 721.756557 231.751908 
L 725.174902 232.297485 
L 728.593247 232.843062 
L 732.011591 233.388639 
L 735.429936 233.934216 
L 738.848281 234.479793 
L 742.266626 235.025371 
L 745.68497 235.570948 
L 749.103315 236.116525 
L 752.52166 236.662102 
L 755.940004 237.207679 
L 759.358349 237.753256 
L 762.776694 238.298833 
L 766.195039 238.844411 
L 769.613383 239.389988 
L 773.031728 239.935565 
L 776.450073 240.481142 
L 779.868417 241.026719 
L 783.286762 241.572296 
L 786.705107 242.117873 
L 790.123452 242.663451 
L 793.541796 243.209028 
L 796.960141 243.754605 
L 800.378486 244.300182 
L 803.79683 244.845759 
L 807.215175 245.391336 
L 810.63352 245.936913 
L 814.051864 246.482491 
L 817.470209 247.028068 
L 820.888554 247.573645 
L 824.306899 248.119222 
L 827.725243 248.664799 
L 831.143588 249.210376 
L 834.561933 249.755953 
" style="fill:none;stroke:#1f77b4;stroke-linecap:square;"/>
   </g>
   <g id="line2d_57">
    <g clip-path="url(#p4cc9ada6e9)">
     <use style="stroke:#000000;" x="496.145806" xlink:href="#mc281f27bf8" y="195.743816"/>
     <use style="stroke:#000000;" x="834.561933" xlink:href="#mc281f27bf8" y="249.755953"/>
    </g>
   </g>
   <g id="line2d_58">
    <path clip-path="url(#p4cc9ada6e9)" d="M 496.145806 269.623424 
L 499.564151 269.683095 
L 502.982496 269.742767 
L 506.40084 269.802439 
L 509.819185 269.86211 
L 513.23753 269.921782 
L 516.655875 269.981453 
L 520.074219 270.041125 
L 523.492564 270.100796 
L 526.910909 270.160468 
L 530.329253 270.22014 
L 533.747598 270.279811 
L 537.165943 270.339483 
L 540.584288 270.399154 
L 544.002632 270.458826 
L 547.420977 270.518497 
L 550.839322 270.578169 
L 554.257666 270.63784 
L 557.676011 270.697512 
L 561.094356 270.757184 
L 564.512701 270.816855 
L 567.931045 270.876527 
L 571.34939 270.936198 
L 574.767735 270.99587 
L 578.186079 271.055541 
L 581.604424 271.115213 
L 585.022769 271.174885 
L 588.441114 271.234556 
L 591.859458 271.294228 
L 595.277803 271.353899 
L 598.696148 271.413571 
L 602.114492 271.473242 
L 605.532837 271.532914 
L 608.951182 271.592586 
L 612.369527 271.652257 
L 615.787871 271.711929 
L 619.206216 271.7716 
L 622.624561 271.831272 
L 626.042905 271.890943 
L 629.46125 271.950615 
L 632.879595 272.010287 
L 636.297939 272.069958 
L 639.716284 272.12963 
L 643.134629 272.189301 
L 646.552974 272.248973 
L 649.971318 272.308644 
L 653.389663 272.368316 
L 656.808008 272.427988 
L 660.226352 272.487659 
L 663.644697 272.547331 
L 667.063042 272.607002 
L 670.481387 272.666674 
L 673.899731 272.726345 
L 677.318076 272.786017 
L 680.736421 272.845689 
L 684.154765 272.90536 
L 687.57311 272.965032 
L 690.991455 273.024703 
L 694.4098 273.084375 
L 697.828144 273.144046 
L 701.246489 273.203718 
L 704.664834 273.263389 
L 708.083178 273.323061 
L 711.501523 273.382733 
L 714.919868 273.442404 
L 718.338213 273.502076 
L 721.756557 273.561747 
L 725.174902 273.621419 
L 728.593247 273.68109 
L 732.011591 273.740762 
L 735.429936 273.800434 
L 738.848281 273.860105 
L 742.266626 273.919777 
L 745.68497 273.979448 
L 749.103315 274.03912 
L 752.52166 274.098791 
L 755.940004 274.158463 
L 759.358349 274.218135 
L 762.776694 274.277806 
L 766.195039 274.337478 
L 769.613383 274.397149 
L 773.031728 274.456821 
L 776.450073 274.516492 
L 779.868417 274.576164 
L 783.286762 274.635836 
L 786.705107 274.695507 
L 790.123452 274.755179 
L 793.541796 274.81485 
L 796.960141 274.874522 
L 800.378486 274.934193 
L 803.79683 274.993865 
L 807.215175 275.053537 
L 810.63352 275.113208 
L 814.051864 275.17288 
L 817.470209 275.232551 
L 820.888554 275.292223 
L 824.306899 275.351894 
L 827.725243 275.411566 
L 831.143588 275.471238 
L 834.561933 275.530909 
" style="fill:none;stroke:#ff7f0e;stroke-linecap:square;"/>
   </g>
   <g id="line2d_59">
    <g clip-path="url(#p4cc9ada6e9)">
     <use style="stroke:#000000;" x="496.145806" xlink:href="#mc281f27bf8" y="269.623424"/>
     <use style="stroke:#000000;" x="834.561933" xlink:href="#mc281f27bf8" y="275.530909"/>
    </g>
   </g>
   <g id="line2d_60">
    <path clip-path="url(#p4cc9ada6e9)" d="M 496.145806 160.735502 
L 499.564151 161.74747 
L 502.982496 162.759438 
L 506.40084 163.771406 
L 509.819185 164.783374 
L 513.23753 165.795342 
L 516.655875 166.80731 
L 520.074219 167.819278 
L 523.492564 168.831246 
L 526.910909 169.843214 
L 530.329253 170.855182 
L 533.747598 171.86715 
L 537.165943 172.879118 
L 540.584288 173.891086 
L 544.002632 174.903054 
L 547.420977 175.915023 
L 550.839322 176.926991 
L 554.257666 177.938959 
L 557.676011 178.950927 
L 561.094356 179.962895 
L 564.512701 180.974863 
L 567.931045 181.986831 
L 571.34939 182.998799 
L 574.767735 184.010767 
L 578.186079 185.022735 
L 581.604424 186.034703 
L 585.022769 187.046671 
L 588.441114 188.058639 
L 591.859458 189.070607 
L 595.277803 190.082575 
L 598.696148 191.094543 
L 602.114492 192.106511 
L 605.532837 193.118479 
L 608.951182 194.130447 
L 612.369527 195.142415 
L 615.787871 196.154383 
L 619.206216 197.166351 
L 622.624561 198.178319 
L 626.042905 199.190287 
L 629.46125 200.202255 
L 632.879595 201.214223 
L 636.297939 202.226191 
L 639.716284 203.238159 
L 643.134629 204.250127 
L 646.552974 205.262095 
L 649.971318 206.274063 
L 653.389663 207.286031 
L 656.808008 208.297999 
L 660.226352 209.309967 
L 663.644697 210.321935 
L 667.063042 211.333903 
L 670.481387 212.345871 
L 673.899731 213.357839 
L 677.318076 214.369807 
L 680.736421 215.381775 
L 684.154765 216.393743 
L 687.57311 217.405711 
L 690.991455 218.417679 
L 694.4098 219.429647 
L 697.828144 220.441615 
L 701.246489 221.453583 
L 704.664834 222.465551 
L 708.083178 223.477519 
L 711.501523 224.489487 
L 714.919868 225.501455 
L 718.338213 226.513423 
L 721.756557 227.525391 
L 725.174902 228.537359 
L 728.593247 229.549327 
L 732.011591 230.561295 
L 735.429936 231.573263 
L 738.848281 232.585231 
L 742.266626 233.597199 
L 745.68497 234.609167 
L 749.103315 235.621136 
L 752.52166 236.633104 
L 755.940004 237.645072 
L 759.358349 238.65704 
L 762.776694 239.669008 
L 766.195039 240.680976 
L 769.613383 241.692944 
L 773.031728 242.704912 
L 776.450073 243.71688 
L 779.868417 244.728848 
L 783.286762 245.740816 
L 786.705107 246.752784 
L 790.123452 247.764752 
L 793.541796 248.77672 
L 796.960141 249.788688 
L 800.378486 250.800656 
L 803.79683 251.812624 
L 807.215175 252.824592 
L 810.63352 253.83656 
L 814.051864 254.848528 
L 817.470209 255.860496 
L 820.888554 256.872464 
L 824.306899 257.884432 
L 827.725243 258.8964 
L 831.143588 259.908368 
L 834.561933 260.920336 
" style="fill:none;stroke:#2ca02c;stroke-linecap:square;"/>
   </g>
   <g id="line2d_61">
    <g clip-path="url(#p4cc9ada6e9)">
     <use style="stroke:#000000;" x="496.145806" xlink:href="#mc281f27bf8" y="160.735502"/>
     <use style="stroke:#000000;" x="834.561933" xlink:href="#mc281f27bf8" y="260.920336"/>
    </g>
   </g>
   <g id="line2d_62">
    <path clip-path="url(#p4cc9ada6e9)" d="M 496.145806 37.349091 
L 499.564151 39.742036 
L 502.982496 42.13498 
L 506.40084 44.527925 
L 509.819185 46.92087 
L 513.23753 49.313814 
L 516.655875 51.706759 
L 520.074219 54.099704 
L 523.492564 56.492649 
L 526.910909 58.885593 
L 530.329253 61.278538 
L 533.747598 63.671483 
L 537.165943 66.064427 
L 540.584288 68.457372 
L 544.002632 70.850317 
L 547.420977 73.243261 
L 550.839322 75.636206 
L 554.257666 78.029151 
L 557.676011 80.422096 
L 561.094356 82.81504 
L 564.512701 85.207985 
L 567.931045 87.60093 
L 571.34939 89.993874 
L 574.767735 92.386819 
L 578.186079 94.779764 
L 581.604424 97.172708 
L 585.022769 99.565653 
L 588.441114 101.958598 
L 591.859458 104.351543 
L 595.277803 106.744487 
L 598.696148 109.137432 
L 602.114492 111.530377 
L 605.532837 113.923321 
L 608.951182 116.316266 
L 612.369527 118.709211 
L 615.787871 121.102155 
L 619.206216 123.4951 
L 622.624561 125.888045 
L 626.042905 128.28099 
L 629.46125 130.673934 
L 632.879595 133.066879 
L 636.297939 135.459824 
L 639.716284 137.852768 
L 643.134629 140.245713 
L 646.552974 142.638658 
L 649.971318 145.031602 
L 653.389663 147.424547 
L 656.808008 149.817492 
L 660.226352 152.210437 
L 663.644697 154.603381 
L 667.063042 156.996326 
L 670.481387 159.389271 
L 673.899731 161.782215 
L 677.318076 164.17516 
L 680.736421 166.568105 
L 684.154765 168.961049 
L 687.57311 171.353994 
L 690.991455 173.746939 
L 694.4098 176.139884 
L 697.828144 178.532828 
L 701.246489 180.925773 
L 704.664834 183.318718 
L 708.083178 185.711662 
L 711.501523 188.104607 
L 714.919868 190.497552 
L 718.338213 192.890496 
L 721.756557 195.283441 
L 725.174902 197.676386 
L 728.593247 200.069331 
L 732.011591 202.462275 
L 735.429936 204.85522 
L 738.848281 207.248165 
L 742.266626 209.641109 
L 745.68497 212.034054 
L 749.103315 214.426999 
L 752.52166 216.819943 
L 755.940004 219.212888 
L 759.358349 221.605833 
L 762.776694 223.998778 
L 766.195039 226.391722 
L 769.613383 228.784667 
L 773.031728 231.177612 
L 776.450073 233.570556 
L 779.868417 235.963501 
L 783.286762 238.356446 
L 786.705107 240.74939 
L 790.123452 243.142335 
L 793.541796 245.53528 
L 796.960141 247.928225 
L 800.378486 250.321169 
L 803.79683 252.714114 
L 807.215175 255.107059 
L 810.63352 257.500003 
L 814.051864 259.892948 
L 817.470209 262.285893 
L 820.888554 264.678837 
L 824.306899 267.071782 
L 827.725243 269.464727 
L 831.143588 271.857672 
L 834.561933 274.250616 
" style="fill:none;stroke:#d62728;stroke-linecap:square;"/>
   </g>
   <g id="line2d_63">
    <g clip-path="url(#p4cc9ada6e9)">
     <use style="stroke:#000000;" x="496.145806" xlink:href="#mc281f27bf8" y="37.349091"/>
     <use style="stroke:#000000;" x="834.561933" xlink:href="#mc281f27bf8" y="274.250616"/>
    </g>
   </g>
   <g id="patch_9">
    <path d="M 479.225 287.44 
L 479.225 25.44 
" style="fill:none;stroke:#000000;stroke-linecap:square;stroke-linejoin:miter;stroke-width:0.8;"/>
   </g>
   <g id="patch_10">
    <path d="M 851.482739 287.44 
L 851.482739 25.44 
" style="fill:none;stroke:#000000;stroke-linecap:square;stroke-linejoin:miter;stroke-width:0.8;"/>
   </g>
   <g id="patch_11">
    <path d="M 479.225 287.44 
L 851.482739 287.44 
" style="fill:none;stroke:#000000;stroke-linecap:square;stroke-linejoin:miter;stroke-width:0.8;"/>
   </g>
   <g id="patch_12">
    <path d="M 479.225 25.44 
L 851.482739 25.44 
" style="fill:none;stroke:#000000;stroke-linecap:square;stroke-linejoin:miter;stroke-width:0.8;"/>
   </g>
   <g id="text_43">
    <!-- Confidence par. -->
    <g transform="translate(618.398245 19.44)scale(0.12 -0.12)">
     <use xlink:href="#DejaVuSans-43"/>
     <use x="69.824219" xlink:href="#DejaVuSans-6f"/>
     <use x="131.005859" xlink:href="#DejaVuSans-6e"/>
     <use x="194.384766" xlink:href="#DejaVuSans-66"/>
     <use x="229.589844" xlink:href="#DejaVuSans-69"/>
     <use x="257.373047" xlink:href="#DejaVuSans-64"/>
     <use x="320.849609" xlink:href="#DejaVuSans-65"/>
     <use x="382.373047" xlink:href="#DejaVuSans-6e"/>
     <use x="445.751953" xlink:href="#DejaVuSans-63"/>
     <use x="500.732422" xlink:href="#DejaVuSans-65"/>
     <use x="562.255859" xlink:href="#DejaVuSans-20"/>
     <use x="594.042969" xlink:href="#DejaVuSans-70"/>
     <use x="657.519531" xlink:href="#DejaVuSans-61"/>
     <use x="718.798828" xlink:href="#DejaVuSans-72"/>
     <use x="750.787109" xlink:href="#DejaVuSans-2e"/>
    </g>
   </g>
   <g id="legend_2">
    <g id="patch_13">
     <path d="M 629.14137 92.1525 
L 701.56637 92.1525 
Q 703.56637 92.1525 703.56637 90.1525 
L 703.56637 32.44 
Q 703.56637 30.44 701.56637 30.44 
L 629.14137 30.44 
Q 627.14137 30.44 627.14137 32.44 
L 627.14137 90.1525 
Q 627.14137 92.1525 629.14137 92.1525 
z
" style="fill:#ffffff;opacity:0.8;stroke:#cccccc;stroke-linejoin:miter;"/>
    </g>
    <g id="line2d_64">
     <path d="M 631.14137 38.538437 
L 651.14137 38.538437 
" style="fill:none;stroke:#1f77b4;stroke-linecap:square;"/>
    </g>
    <g id="line2d_65"/>
    <g id="text_44">
     <!-- comp. 1 -->
     <g transform="translate(659.14137 42.038437)scale(0.1 -0.1)">
      <use xlink:href="#DejaVuSans-63"/>
      <use x="54.980469" xlink:href="#DejaVuSans-6f"/>
      <use x="116.162109" xlink:href="#DejaVuSans-6d"/>
      <use x="213.574219" xlink:href="#DejaVuSans-70"/>
      <use x="277.050781" xlink:href="#DejaVuSans-2e"/>
      <use x="308.837891" xlink:href="#DejaVuSans-20"/>
      <use x="340.625" xlink:href="#DejaVuSans-31"/>
     </g>
    </g>
    <g id="line2d_66">
     <path d="M 631.14137 53.216562 
L 651.14137 53.216562 
" style="fill:none;stroke:#ff7f0e;stroke-linecap:square;"/>
    </g>
    <g id="line2d_67"/>
    <g id="text_45">
     <!-- comp. 2 -->
     <g transform="translate(659.14137 56.716562)scale(0.1 -0.1)">
      <use xlink:href="#DejaVuSans-63"/>
      <use x="54.980469" xlink:href="#DejaVuSans-6f"/>
      <use x="116.162109" xlink:href="#DejaVuSans-6d"/>
      <use x="213.574219" xlink:href="#DejaVuSans-70"/>
      <use x="277.050781" xlink:href="#DejaVuSans-2e"/>
      <use x="308.837891" xlink:href="#DejaVuSans-20"/>
      <use x="340.625" xlink:href="#DejaVuSans-32"/>
     </g>
    </g>
    <g id="line2d_68">
     <path d="M 631.14137 67.894687 
L 651.14137 67.894687 
" style="fill:none;stroke:#2ca02c;stroke-linecap:square;"/>
    </g>
    <g id="line2d_69"/>
    <g id="text_46">
     <!-- comp. 3 -->
     <g transform="translate(659.14137 71.394687)scale(0.1 -0.1)">
      <use xlink:href="#DejaVuSans-63"/>
      <use x="54.980469" xlink:href="#DejaVuSans-6f"/>
      <use x="116.162109" xlink:href="#DejaVuSans-6d"/>
      <use x="213.574219" xlink:href="#DejaVuSans-70"/>
      <use x="277.050781" xlink:href="#DejaVuSans-2e"/>
      <use x="308.837891" xlink:href="#DejaVuSans-20"/>
      <use x="340.625" xlink:href="#DejaVuSans-33"/>
     </g>
    </g>
    <g id="line2d_70">
     <path d="M 631.14137 82.572812 
L 651.14137 82.572812 
" style="fill:none;stroke:#d62728;stroke-linecap:square;"/>
    </g>
    <g id="line2d_71"/>
    <g id="text_47">
     <!-- comp. 4 -->
     <g transform="translate(659.14137 86.072812)scale(0.1 -0.1)">
      <use xlink:href="#DejaVuSans-63"/>
      <use x="54.980469" xlink:href="#DejaVuSans-6f"/>
      <use x="116.162109" xlink:href="#DejaVuSans-6d"/>
      <use x="213.574219" xlink:href="#DejaVuSans-70"/>
      <use x="277.050781" xlink:href="#DejaVuSans-2e"/>
      <use x="308.837891" xlink:href="#DejaVuSans-20"/>
      <use x="340.625" xlink:href="#DejaVuSans-34"/>
     </g>
    </g>
   </g>
  </g>
  <g id="axes_3">
   <g id="patch_14">
    <path d="M 54.2 606.04 
L 426.457739 606.04 
L 426.457739 344.04 
L 54.2 344.04 
z
" style="fill:#ffffff;"/>
   </g>
   <g id="matplotlib.axis_5">
    <g id="xtick_19">
     <g id="line2d_72">
      <g>
       <use style="stroke:#000000;stroke-width:0.8;" x="71.120806" xlink:href="#ma56ec904de" y="606.04"/>
      </g>
     </g>
     <g id="text_48">
      <!-- 0.00 -->
      <g transform="translate(59.987994 620.638438)scale(0.1 -0.1)">
       <use xlink:href="#DejaVuSans-30"/>
       <use x="63.623047" xlink:href="#DejaVuSans-2e"/>
       <use x="95.410156" xlink:href="#DejaVuSans-30"/>
       <use x="159.033203" xlink:href="#DejaVuSans-30"/>
      </g>
     </g>
    </g>
    <g id="xtick_20">
     <g id="line2d_73">
      <g>
       <use style="stroke:#000000;stroke-width:0.8;" x="114.094283" xlink:href="#ma56ec904de" y="606.04"/>
      </g>
     </g>
     <g id="text_49">
      <!-- 0.02 -->
      <g transform="translate(102.96147 620.638438)scale(0.1 -0.1)">
       <use xlink:href="#DejaVuSans-30"/>
       <use x="63.623047" xlink:href="#DejaVuSans-2e"/>
       <use x="95.410156" xlink:href="#DejaVuSans-30"/>
       <use x="159.033203" xlink:href="#DejaVuSans-32"/>
      </g>
     </g>
    </g>
    <g id="xtick_21">
     <g id="line2d_74">
      <g>
       <use style="stroke:#000000;stroke-width:0.8;" x="157.067759" xlink:href="#ma56ec904de" y="606.04"/>
      </g>
     </g>
     <g id="text_50">
      <!-- 0.04 -->
      <g transform="translate(145.934947 620.638438)scale(0.1 -0.1)">
       <use xlink:href="#DejaVuSans-30"/>
       <use x="63.623047" xlink:href="#DejaVuSans-2e"/>
       <use x="95.410156" xlink:href="#DejaVuSans-30"/>
       <use x="159.033203" xlink:href="#DejaVuSans-34"/>
      </g>
     </g>
    </g>
    <g id="xtick_22">
     <g id="line2d_75">
      <g>
       <use style="stroke:#000000;stroke-width:0.8;" x="200.041235" xlink:href="#ma56ec904de" y="606.04"/>
      </g>
     </g>
     <g id="text_51">
      <!-- 0.06 -->
      <g transform="translate(188.908423 620.638438)scale(0.1 -0.1)">
       <use xlink:href="#DejaVuSans-30"/>
       <use x="63.623047" xlink:href="#DejaVuSans-2e"/>
       <use x="95.410156" xlink:href="#DejaVuSans-30"/>
       <use x="159.033203" xlink:href="#DejaVuSans-36"/>
      </g>
     </g>
    </g>
    <g id="xtick_23">
     <g id="line2d_76">
      <g>
       <use style="stroke:#000000;stroke-width:0.8;" x="243.014712" xlink:href="#ma56ec904de" y="606.04"/>
      </g>
     </g>
     <g id="text_52">
      <!-- 0.08 -->
      <g transform="translate(231.881899 620.638438)scale(0.1 -0.1)">
       <use xlink:href="#DejaVuSans-30"/>
       <use x="63.623047" xlink:href="#DejaVuSans-2e"/>
       <use x="95.410156" xlink:href="#DejaVuSans-30"/>
       <use x="159.033203" xlink:href="#DejaVuSans-38"/>
      </g>
     </g>
    </g>
    <g id="xtick_24">
     <g id="line2d_77">
      <g>
       <use style="stroke:#000000;stroke-width:0.8;" x="285.988188" xlink:href="#ma56ec904de" y="606.04"/>
      </g>
     </g>
     <g id="text_53">
      <!-- 0.10 -->
      <g transform="translate(274.855376 620.638438)scale(0.1 -0.1)">
       <use xlink:href="#DejaVuSans-30"/>
       <use x="63.623047" xlink:href="#DejaVuSans-2e"/>
       <use x="95.410156" xlink:href="#DejaVuSans-31"/>
       <use x="159.033203" xlink:href="#DejaVuSans-30"/>
      </g>
     </g>
    </g>
    <g id="xtick_25">
     <g id="line2d_78">
      <g>
       <use style="stroke:#000000;stroke-width:0.8;" x="328.961665" xlink:href="#ma56ec904de" y="606.04"/>
      </g>
     </g>
     <g id="text_54">
      <!-- 0.12 -->
      <g transform="translate(317.828852 620.638438)scale(0.1 -0.1)">
       <use xlink:href="#DejaVuSans-30"/>
       <use x="63.623047" xlink:href="#DejaVuSans-2e"/>
       <use x="95.410156" xlink:href="#DejaVuSans-31"/>
       <use x="159.033203" xlink:href="#DejaVuSans-32"/>
      </g>
     </g>
    </g>
    <g id="xtick_26">
     <g id="line2d_79">
      <g>
       <use style="stroke:#000000;stroke-width:0.8;" x="371.935141" xlink:href="#ma56ec904de" y="606.04"/>
      </g>
     </g>
     <g id="text_55">
      <!-- 0.14 -->
      <g transform="translate(360.802328 620.638438)scale(0.1 -0.1)">
       <use xlink:href="#DejaVuSans-30"/>
       <use x="63.623047" xlink:href="#DejaVuSans-2e"/>
       <use x="95.410156" xlink:href="#DejaVuSans-31"/>
       <use x="159.033203" xlink:href="#DejaVuSans-34"/>
      </g>
     </g>
    </g>
    <g id="xtick_27">
     <g id="line2d_80">
      <g>
       <use style="stroke:#000000;stroke-width:0.8;" x="414.908617" xlink:href="#ma56ec904de" y="606.04"/>
      </g>
     </g>
     <g id="text_56">
      <!-- 0.16 -->
      <g transform="translate(403.775805 620.638438)scale(0.1 -0.1)">
       <use xlink:href="#DejaVuSans-30"/>
       <use x="63.623047" xlink:href="#DejaVuSans-2e"/>
       <use x="95.410156" xlink:href="#DejaVuSans-31"/>
       <use x="159.033203" xlink:href="#DejaVuSans-36"/>
      </g>
     </g>
    </g>
    <g id="text_57">
     <!-- Protein concentration [mM] -->
     <g transform="translate(171.911682 634.316563)scale(0.1 -0.1)">
      <use xlink:href="#DejaVuSans-50"/>
      <use x="58.552734" xlink:href="#DejaVuSans-72"/>
      <use x="97.416016" xlink:href="#DejaVuSans-6f"/>
      <use x="158.597656" xlink:href="#DejaVuSans-74"/>
      <use x="197.806641" xlink:href="#DejaVuSans-65"/>
      <use x="259.330078" xlink:href="#DejaVuSans-69"/>
      <use x="287.113281" xlink:href="#DejaVuSans-6e"/>
      <use x="350.492188" xlink:href="#DejaVuSans-20"/>
      <use x="382.279297" xlink:href="#DejaVuSans-63"/>
      <use x="437.259766" xlink:href="#DejaVuSans-6f"/>
      <use x="498.441406" xlink:href="#DejaVuSans-6e"/>
      <use x="561.820312" xlink:href="#DejaVuSans-63"/>
      <use x="616.800781" xlink:href="#DejaVuSans-65"/>
      <use x="678.324219" xlink:href="#DejaVuSans-6e"/>
      <use x="741.703125" xlink:href="#DejaVuSans-74"/>
      <use x="780.912109" xlink:href="#DejaVuSans-72"/>
      <use x="822.025391" xlink:href="#DejaVuSans-61"/>
      <use x="883.304688" xlink:href="#DejaVuSans-74"/>
      <use x="922.513672" xlink:href="#DejaVuSans-69"/>
      <use x="950.296875" xlink:href="#DejaVuSans-6f"/>
      <use x="1011.478516" xlink:href="#DejaVuSans-6e"/>
      <use x="1074.857422" xlink:href="#DejaVuSans-20"/>
      <use x="1106.644531" xlink:href="#DejaVuSans-5b"/>
      <use x="1145.658203" xlink:href="#DejaVuSans-6d"/>
      <use x="1243.070312" xlink:href="#DejaVuSans-4d"/>
      <use x="1329.349609" xlink:href="#DejaVuSans-5d"/>
     </g>
    </g>
   </g>
   <g id="matplotlib.axis_6">
    <g id="ytick_16">
     <g id="line2d_81">
      <g>
       <use style="stroke:#000000;stroke-width:0.8;" x="54.2" xlink:href="#m1c04f69a0c" y="598.590034"/>
      </g>
     </g>
     <g id="text_58">
      <!-- 5 -->
      <g transform="translate(32.457813 602.389252)scale(0.1 -0.1)">
       <defs>
        <path d="M 678 2272 
L 4684 2272 
L 4684 1741 
L 678 1741 
L 678 2272 
z
" id="DejaVuSans-2212" transform="scale(0.015625)"/>
       </defs>
       <use xlink:href="#DejaVuSans-2212"/>
       <use x="83.789062" xlink:href="#DejaVuSans-35"/>
      </g>
     </g>
    </g>
    <g id="ytick_17">
     <g id="line2d_82">
      <g>
       <use style="stroke:#000000;stroke-width:0.8;" x="54.2" xlink:href="#m1c04f69a0c" y="565.762648"/>
      </g>
     </g>
     <g id="text_59">
      <!-- 4 -->
      <g transform="translate(32.457813 569.561866)scale(0.1 -0.1)">
       <use xlink:href="#DejaVuSans-2212"/>
       <use x="83.789062" xlink:href="#DejaVuSans-34"/>
      </g>
     </g>
    </g>
    <g id="ytick_18">
     <g id="line2d_83">
      <g>
       <use style="stroke:#000000;stroke-width:0.8;" x="54.2" xlink:href="#m1c04f69a0c" y="532.935262"/>
      </g>
     </g>
     <g id="text_60">
      <!-- 3 -->
      <g transform="translate(32.457813 536.734481)scale(0.1 -0.1)">
       <use xlink:href="#DejaVuSans-2212"/>
       <use x="83.789062" xlink:href="#DejaVuSans-33"/>
      </g>
     </g>
    </g>
    <g id="ytick_19">
     <g id="line2d_84">
      <g>
       <use style="stroke:#000000;stroke-width:0.8;" x="54.2" xlink:href="#m1c04f69a0c" y="500.107876"/>
      </g>
     </g>
     <g id="text_61">
      <!-- 2 -->
      <g transform="translate(32.457813 503.907095)scale(0.1 -0.1)">
       <use xlink:href="#DejaVuSans-2212"/>
       <use x="83.789062" xlink:href="#DejaVuSans-32"/>
      </g>
     </g>
    </g>
    <g id="ytick_20">
     <g id="line2d_85">
      <g>
       <use style="stroke:#000000;stroke-width:0.8;" x="54.2" xlink:href="#m1c04f69a0c" y="467.28049"/>
      </g>
     </g>
     <g id="text_62">
      <!-- 1 -->
      <g transform="translate(32.457813 471.079709)scale(0.1 -0.1)">
       <use xlink:href="#DejaVuSans-2212"/>
       <use x="83.789062" xlink:href="#DejaVuSans-31"/>
      </g>
     </g>
    </g>
    <g id="ytick_21">
     <g id="line2d_86">
      <g>
       <use style="stroke:#000000;stroke-width:0.8;" x="54.2" xlink:href="#m1c04f69a0c" y="434.453104"/>
      </g>
     </g>
     <g id="text_63">
      <!-- 0 -->
      <g transform="translate(40.8375 438.252323)scale(0.1 -0.1)">
       <use xlink:href="#DejaVuSans-30"/>
      </g>
     </g>
    </g>
    <g id="ytick_22">
     <g id="line2d_87">
      <g>
       <use style="stroke:#000000;stroke-width:0.8;" x="54.2" xlink:href="#m1c04f69a0c" y="401.625718"/>
      </g>
     </g>
     <g id="text_64">
      <!-- 1 -->
      <g transform="translate(40.8375 405.424937)scale(0.1 -0.1)">
       <use xlink:href="#DejaVuSans-31"/>
      </g>
     </g>
    </g>
    <g id="ytick_23">
     <g id="line2d_88">
      <g>
       <use style="stroke:#000000;stroke-width:0.8;" x="54.2" xlink:href="#m1c04f69a0c" y="368.798332"/>
      </g>
     </g>
     <g id="text_65">
      <!-- 2 -->
      <g transform="translate(40.8375 372.597551)scale(0.1 -0.1)">
       <use xlink:href="#DejaVuSans-32"/>
      </g>
     </g>
    </g>
    <g id="text_66">
     <!-- Enthalpy -->
     <g transform="translate(26.378125 497.08375)rotate(-90)scale(0.1 -0.1)">
      <defs>
       <path d="M 628 4666 
L 3578 4666 
L 3578 4134 
L 1259 4134 
L 1259 2753 
L 3481 2753 
L 3481 2222 
L 1259 2222 
L 1259 531 
L 3634 531 
L 3634 0 
L 628 0 
L 628 4666 
z
" id="DejaVuSans-45" transform="scale(0.015625)"/>
       <path d="M 3513 2113 
L 3513 0 
L 2938 0 
L 2938 2094 
Q 2938 2591 2744 2837 
Q 2550 3084 2163 3084 
Q 1697 3084 1428 2787 
Q 1159 2491 1159 1978 
L 1159 0 
L 581 0 
L 581 4863 
L 1159 4863 
L 1159 2956 
Q 1366 3272 1645 3428 
Q 1925 3584 2291 3584 
Q 2894 3584 3203 3211 
Q 3513 2838 3513 2113 
z
" id="DejaVuSans-68" transform="scale(0.015625)"/>
       <path d="M 603 4863 
L 1178 4863 
L 1178 0 
L 603 0 
L 603 4863 
z
" id="DejaVuSans-6c" transform="scale(0.015625)"/>
       <path d="M 2059 -325 
Q 1816 -950 1584 -1140 
Q 1353 -1331 966 -1331 
L 506 -1331 
L 506 -850 
L 844 -850 
Q 1081 -850 1212 -737 
Q 1344 -625 1503 -206 
L 1606 56 
L 191 3500 
L 800 3500 
L 1894 763 
L 2988 3500 
L 3597 3500 
L 2059 -325 
z
" id="DejaVuSans-79" transform="scale(0.015625)"/>
      </defs>
      <use xlink:href="#DejaVuSans-45"/>
      <use x="63.183594" xlink:href="#DejaVuSans-6e"/>
      <use x="126.5625" xlink:href="#DejaVuSans-74"/>
      <use x="165.771484" xlink:href="#DejaVuSans-68"/>
      <use x="229.150391" xlink:href="#DejaVuSans-61"/>
      <use x="290.429688" xlink:href="#DejaVuSans-6c"/>
      <use x="318.212891" xlink:href="#DejaVuSans-70"/>
      <use x="381.689453" xlink:href="#DejaVuSans-79"/>
     </g>
    </g>
   </g>
   <g id="line2d_89">
    <path clip-path="url(#p941f489bd6)" d="M 160.247796 606.04 
L 160.247796 344.04 
" style="fill:none;stroke:#000000;stroke-linecap:square;stroke-width:1.5;"/>
   </g>
   <g id="line2d_90">
    <path clip-path="url(#p941f489bd6)" d="M 409.536933 606.04 
L 409.536933 344.04 
" style="fill:none;stroke:#000000;stroke-linecap:square;stroke-width:1.5;"/>
   </g>
   <g id="line2d_91">
    <path clip-path="url(#p941f489bd6)" d="M 71.120806 463.507509 
L 74.539151 464.826937 
L 77.957496 466.146365 
L 81.37584 467.465793 
L 84.794185 468.785222 
L 88.21253 470.10465 
L 91.630875 471.424078 
L 95.049219 472.743507 
L 98.467564 474.062935 
L 101.885909 475.382363 
L 105.304253 476.701791 
L 108.722598 478.02122 
L 112.140943 479.340648 
L 115.559288 480.660076 
L 118.977632 481.979505 
L 122.395977 483.298933 
L 125.814322 484.618361 
L 129.232666 485.937789 
L 132.651011 487.257218 
L 136.069356 488.576646 
L 139.487701 489.896074 
L 142.906045 491.215503 
L 146.32439 492.534931 
L 149.742735 493.854359 
L 153.161079 495.173788 
L 156.579424 496.493216 
L 159.997769 497.812644 
L 163.416114 499.132072 
L 166.834458 500.451501 
L 170.252803 501.770929 
L 173.671148 503.090357 
L 177.089492 504.409786 
L 180.507837 505.729214 
L 183.926182 507.048642 
L 187.344527 508.36807 
L 190.762871 509.687499 
L 194.181216 511.006927 
L 197.599561 512.326355 
L 201.017905 513.645784 
L 204.43625 514.965212 
L 207.854595 516.28464 
L 211.272939 517.604068 
L 214.691284 518.923497 
L 218.109629 520.242925 
L 221.527974 521.562353 
L 224.946318 522.881782 
L 228.364663 524.20121 
L 231.783008 525.520638 
L 235.201352 526.840066 
L 238.619697 528.159495 
L 242.038042 529.478923 
L 245.456387 530.798351 
L 248.874731 532.11778 
L 252.293076 533.437208 
L 255.711421 534.756636 
L 259.129765 536.076064 
L 262.54811 537.395493 
L 265.966455 538.714921 
L 269.3848 540.034349 
L 272.803144 541.353778 
L 276.221489 542.673206 
L 279.639834 543.992634 
L 283.058178 545.312062 
L 286.476523 546.631491 
L 289.894868 547.950919 
L 293.313213 549.270347 
L 296.731557 550.589776 
L 300.149902 551.909204 
L 303.568247 553.228632 
L 306.986591 554.54806 
L 310.404936 555.867489 
L 313.823281 557.186917 
L 317.241626 558.506345 
L 320.65997 559.825774 
L 324.078315 561.145202 
L 327.49666 562.46463 
L 330.915004 563.784058 
L 334.333349 565.103487 
L 337.751694 566.422915 
L 341.170039 567.742343 
L 344.588383 569.061772 
L 348.006728 570.3812 
L 351.425073 571.700628 
L 354.843417 573.020056 
L 358.261762 574.339485 
L 361.680107 575.658913 
L 365.098452 576.978341 
L 368.516796 578.29777 
L 371.935141 579.617198 
L 375.353486 580.936626 
L 378.77183 582.256055 
L 382.190175 583.575483 
L 385.60852 584.894911 
L 389.026864 586.214339 
L 392.445209 587.533768 
L 395.863554 588.853196 
L 399.281899 590.172624 
L 402.700243 591.492053 
L 406.118588 592.811481 
L 409.536933 594.130909 
" style="fill:none;stroke:#1f77b4;stroke-linecap:square;"/>
   </g>
   <g id="line2d_92">
    <g clip-path="url(#p941f489bd6)">
     <use style="stroke:#000000;" x="71.120806" xlink:href="#mc281f27bf8" y="463.507509"/>
     <use style="stroke:#000000;" x="409.536933" xlink:href="#mc281f27bf8" y="594.130909"/>
    </g>
   </g>
   <g id="line2d_93">
    <path clip-path="url(#p941f489bd6)" d="M 71.120806 478.863231 
L 74.539151 479.918158 
L 77.957496 480.973086 
L 81.37584 482.028014 
L 84.794185 483.082942 
L 88.21253 484.137869 
L 91.630875 485.192797 
L 95.049219 486.247725 
L 98.467564 487.302652 
L 101.885909 488.35758 
L 105.304253 489.412508 
L 108.722598 490.467436 
L 112.140943 491.522363 
L 115.559288 492.577291 
L 118.977632 493.632219 
L 122.395977 494.687147 
L 125.814322 495.742074 
L 129.232666 496.797002 
L 132.651011 497.85193 
L 136.069356 498.906857 
L 139.487701 499.961785 
L 142.906045 501.016713 
L 146.32439 502.071641 
L 149.742735 503.126568 
L 153.161079 504.181496 
L 156.579424 505.236424 
L 159.997769 506.291352 
L 163.416114 507.346279 
L 166.834458 508.401207 
L 170.252803 509.456135 
L 173.671148 510.511063 
L 177.089492 511.56599 
L 180.507837 512.620918 
L 183.926182 513.675846 
L 187.344527 514.730773 
L 190.762871 515.785701 
L 194.181216 516.840629 
L 197.599561 517.895557 
L 201.017905 518.950484 
L 204.43625 520.005412 
L 207.854595 521.06034 
L 211.272939 522.115268 
L 214.691284 523.170195 
L 218.109629 524.225123 
L 221.527974 525.280051 
L 224.946318 526.334978 
L 228.364663 527.389906 
L 231.783008 528.444834 
L 235.201352 529.499762 
L 238.619697 530.554689 
L 242.038042 531.609617 
L 245.456387 532.664545 
L 248.874731 533.719473 
L 252.293076 534.7744 
L 255.711421 535.829328 
L 259.129765 536.884256 
L 262.54811 537.939183 
L 265.966455 538.994111 
L 269.3848 540.049039 
L 272.803144 541.103967 
L 276.221489 542.158894 
L 279.639834 543.213822 
L 283.058178 544.26875 
L 286.476523 545.323678 
L 289.894868 546.378605 
L 293.313213 547.433533 
L 296.731557 548.488461 
L 300.149902 549.543389 
L 303.568247 550.598316 
L 306.986591 551.653244 
L 310.404936 552.708172 
L 313.823281 553.763099 
L 317.241626 554.818027 
L 320.65997 555.872955 
L 324.078315 556.927883 
L 327.49666 557.98281 
L 330.915004 559.037738 
L 334.333349 560.092666 
L 337.751694 561.147594 
L 341.170039 562.202521 
L 344.588383 563.257449 
L 348.006728 564.312377 
L 351.425073 565.367304 
L 354.843417 566.422232 
L 358.261762 567.47716 
L 361.680107 568.532088 
L 365.098452 569.587015 
L 368.516796 570.641943 
L 371.935141 571.696871 
L 375.353486 572.751799 
L 378.77183 573.806726 
L 382.190175 574.861654 
L 385.60852 575.916582 
L 389.026864 576.971509 
L 392.445209 578.026437 
L 395.863554 579.081365 
L 399.281899 580.136293 
L 402.700243 581.19122 
L 406.118588 582.246148 
L 409.536933 583.301076 
" style="fill:none;stroke:#ff7f0e;stroke-linecap:square;"/>
   </g>
   <g id="line2d_94">
    <g clip-path="url(#p941f489bd6)">
     <use style="stroke:#000000;" x="71.120806" xlink:href="#mc281f27bf8" y="478.863231"/>
     <use style="stroke:#000000;" x="409.536933" xlink:href="#mc281f27bf8" y="583.301076"/>
    </g>
   </g>
   <g id="line2d_95">
    <path clip-path="url(#p941f489bd6)" d="M 71.120806 417.138346 
L 74.539151 416.520273 
L 77.957496 415.9022 
L 81.37584 415.284127 
L 84.794185 414.666053 
L 88.21253 414.04798 
L 91.630875 413.429907 
L 95.049219 412.811833 
L 98.467564 412.19376 
L 101.885909 411.575687 
L 105.304253 410.957614 
L 108.722598 410.33954 
L 112.140943 409.721467 
L 115.559288 409.103394 
L 118.977632 408.48532 
L 122.395977 407.867247 
L 125.814322 407.249174 
L 129.232666 406.631101 
L 132.651011 406.013027 
L 136.069356 405.394954 
L 139.487701 404.776881 
L 142.906045 404.158807 
L 146.32439 403.540734 
L 149.742735 402.922661 
L 153.161079 402.304588 
L 156.579424 401.686514 
L 159.997769 401.068441 
L 163.416114 400.450368 
L 166.834458 399.832294 
L 170.252803 399.214221 
L 173.671148 398.596148 
L 177.089492 397.978075 
L 180.507837 397.360001 
L 183.926182 396.741928 
L 187.344527 396.123855 
L 190.762871 395.505781 
L 194.181216 394.887708 
L 197.599561 394.269635 
L 201.017905 393.651562 
L 204.43625 393.033488 
L 207.854595 392.415415 
L 211.272939 391.797342 
L 214.691284 391.179268 
L 218.109629 390.561195 
L 221.527974 389.943122 
L 224.946318 389.325048 
L 228.364663 388.706975 
L 231.783008 388.088902 
L 235.201352 387.470829 
L 238.619697 386.852755 
L 242.038042 386.234682 
L 245.456387 385.616609 
L 248.874731 384.998535 
L 252.293076 384.380462 
L 255.711421 383.762389 
L 259.129765 383.144316 
L 262.54811 382.526242 
L 265.966455 381.908169 
L 269.3848 381.290096 
L 272.803144 380.672022 
L 276.221489 380.053949 
L 279.639834 379.435876 
L 283.058178 378.817803 
L 286.476523 378.199729 
L 289.894868 377.581656 
L 293.313213 376.963583 
L 296.731557 376.345509 
L 300.149902 375.727436 
L 303.568247 375.109363 
L 306.986591 374.49129 
L 310.404936 373.873216 
L 313.823281 373.255143 
L 317.241626 372.63707 
L 320.65997 372.018996 
L 324.078315 371.400923 
L 327.49666 370.78285 
L 330.915004 370.164777 
L 334.333349 369.546703 
L 337.751694 368.92863 
L 341.170039 368.310557 
L 344.588383 367.692483 
L 348.006728 367.07441 
L 351.425073 366.456337 
L 354.843417 365.838264 
L 358.261762 365.22019 
L 361.680107 364.602117 
L 365.098452 363.984044 
L 368.516796 363.36597 
L 371.935141 362.747897 
L 375.353486 362.129824 
L 378.77183 361.511751 
L 382.190175 360.893677 
L 385.60852 360.275604 
L 389.026864 359.657531 
L 392.445209 359.039457 
L 395.863554 358.421384 
L 399.281899 357.803311 
L 402.700243 357.185237 
L 406.118588 356.567164 
L 409.536933 355.949091 
" style="fill:none;stroke:#2ca02c;stroke-linecap:square;"/>
   </g>
   <g id="line2d_96">
    <g clip-path="url(#p941f489bd6)">
     <use style="stroke:#000000;" x="71.120806" xlink:href="#mc281f27bf8" y="417.138346"/>
     <use style="stroke:#000000;" x="409.536933" xlink:href="#mc281f27bf8" y="355.949091"/>
    </g>
   </g>
   <g id="line2d_97">
    <path clip-path="url(#p941f489bd6)" d="M 71.120806 471.05888 
L 74.539151 471.572519 
L 77.957496 472.086157 
L 81.37584 472.599796 
L 84.794185 473.113435 
L 88.21253 473.627073 
L 91.630875 474.140712 
L 95.049219 474.65435 
L 98.467564 475.167989 
L 101.885909 475.681628 
L 105.304253 476.195266 
L 108.722598 476.708905 
L 112.140943 477.222543 
L 115.559288 477.736182 
L 118.977632 478.249821 
L 122.395977 478.763459 
L 125.814322 479.277098 
L 129.232666 479.790736 
L 132.651011 480.304375 
L 136.069356 480.818014 
L 139.487701 481.331652 
L 142.906045 481.845291 
L 146.32439 482.358929 
L 149.742735 482.872568 
L 153.161079 483.386207 
L 156.579424 483.899845 
L 159.997769 484.413484 
L 163.416114 484.927122 
L 166.834458 485.440761 
L 170.252803 485.9544 
L 173.671148 486.468038 
L 177.089492 486.981677 
L 180.507837 487.495315 
L 183.926182 488.008954 
L 187.344527 488.522593 
L 190.762871 489.036231 
L 194.181216 489.54987 
L 197.599561 490.063508 
L 201.017905 490.577147 
L 204.43625 491.090786 
L 207.854595 491.604424 
L 211.272939 492.118063 
L 214.691284 492.631701 
L 218.109629 493.14534 
L 221.527974 493.658979 
L 224.946318 494.172617 
L 228.364663 494.686256 
L 231.783008 495.199894 
L 235.201352 495.713533 
L 238.619697 496.227172 
L 242.038042 496.74081 
L 245.456387 497.254449 
L 248.874731 497.768087 
L 252.293076 498.281726 
L 255.711421 498.795365 
L 259.129765 499.309003 
L 262.54811 499.822642 
L 265.966455 500.33628 
L 269.3848 500.849919 
L 272.803144 501.363558 
L 276.221489 501.877196 
L 279.639834 502.390835 
L 283.058178 502.904473 
L 286.476523 503.418112 
L 289.894868 503.931751 
L 293.313213 504.445389 
L 296.731557 504.959028 
L 300.149902 505.472666 
L 303.568247 505.986305 
L 306.986591 506.499944 
L 310.404936 507.013582 
L 313.823281 507.527221 
L 317.241626 508.040859 
L 320.65997 508.554498 
L 324.078315 509.068137 
L 327.49666 509.581775 
L 330.915004 510.095414 
L 334.333349 510.609052 
L 337.751694 511.122691 
L 341.170039 511.63633 
L 344.588383 512.149968 
L 348.006728 512.663607 
L 351.425073 513.177245 
L 354.843417 513.690884 
L 358.261762 514.204523 
L 361.680107 514.718161 
L 365.098452 515.2318 
L 368.516796 515.745438 
L 371.935141 516.259077 
L 375.353486 516.772716 
L 378.77183 517.286354 
L 382.190175 517.799993 
L 385.60852 518.313631 
L 389.026864 518.82727 
L 392.445209 519.340909 
L 395.863554 519.854547 
L 399.281899 520.368186 
L 402.700243 520.881824 
L 406.118588 521.395463 
L 409.536933 521.909102 
" style="fill:none;stroke:#d62728;stroke-linecap:square;"/>
   </g>
   <g id="line2d_98">
    <g clip-path="url(#p941f489bd6)">
     <use style="stroke:#000000;" x="71.120806" xlink:href="#mc281f27bf8" y="471.05888"/>
     <use style="stroke:#000000;" x="409.536933" xlink:href="#mc281f27bf8" y="521.909102"/>
    </g>
   </g>
   <g id="patch_15">
    <path d="M 54.2 606.04 
L 54.2 344.04 
" style="fill:none;stroke:#000000;stroke-linecap:square;stroke-linejoin:miter;stroke-width:0.8;"/>
   </g>
   <g id="patch_16">
    <path d="M 426.457739 606.04 
L 426.457739 344.04 
" style="fill:none;stroke:#000000;stroke-linecap:square;stroke-linejoin:miter;stroke-width:0.8;"/>
   </g>
   <g id="patch_17">
    <path d="M 54.2 606.04 
L 426.457739 606.04 
" style="fill:none;stroke:#000000;stroke-linecap:square;stroke-linejoin:miter;stroke-width:0.8;"/>
   </g>
   <g id="patch_18">
    <path d="M 54.2 344.04 
L 426.457739 344.04 
" style="fill:none;stroke:#000000;stroke-linecap:square;stroke-linejoin:miter;stroke-width:0.8;"/>
   </g>
   <g id="text_67">
    <!-- Amplitude -->
    <g transform="translate(209.581682 338.04)scale(0.12 -0.12)">
     <defs>
      <path d="M 2188 4044 
L 1331 1722 
L 3047 1722 
L 2188 4044 
z
M 1831 4666 
L 2547 4666 
L 4325 0 
L 3669 0 
L 3244 1197 
L 1141 1197 
L 716 0 
L 50 0 
L 1831 4666 
z
" id="DejaVuSans-41" transform="scale(0.015625)"/>
      <path d="M 544 1381 
L 544 3500 
L 1119 3500 
L 1119 1403 
Q 1119 906 1312 657 
Q 1506 409 1894 409 
Q 2359 409 2629 706 
Q 2900 1003 2900 1516 
L 2900 3500 
L 3475 3500 
L 3475 0 
L 2900 0 
L 2900 538 
Q 2691 219 2414 64 
Q 2138 -91 1772 -91 
Q 1169 -91 856 284 
Q 544 659 544 1381 
z
M 1991 3584 
L 1991 3584 
z
" id="DejaVuSans-75" transform="scale(0.015625)"/>
     </defs>
     <use xlink:href="#DejaVuSans-41"/>
     <use x="68.408203" xlink:href="#DejaVuSans-6d"/>
     <use x="165.820312" xlink:href="#DejaVuSans-70"/>
     <use x="229.296875" xlink:href="#DejaVuSans-6c"/>
     <use x="257.080078" xlink:href="#DejaVuSans-69"/>
     <use x="284.863281" xlink:href="#DejaVuSans-74"/>
     <use x="324.072266" xlink:href="#DejaVuSans-75"/>
     <use x="387.451172" xlink:href="#DejaVuSans-64"/>
     <use x="450.927734" xlink:href="#DejaVuSans-65"/>
    </g>
   </g>
   <g id="legend_3">
    <g id="patch_19">
     <path d="M 61.2 601.04 
L 133.625 601.04 
Q 135.625 601.04 135.625 599.04 
L 135.625 541.3275 
Q 135.625 539.3275 133.625 539.3275 
L 61.2 539.3275 
Q 59.2 539.3275 59.2 541.3275 
L 59.2 599.04 
Q 59.2 601.04 61.2 601.04 
z
" style="fill:#ffffff;opacity:0.8;stroke:#cccccc;stroke-linejoin:miter;"/>
    </g>
    <g id="line2d_99">
     <path d="M 63.2 547.425938 
L 83.2 547.425938 
" style="fill:none;stroke:#1f77b4;stroke-linecap:square;"/>
    </g>
    <g id="line2d_100"/>
    <g id="text_68">
     <!-- comp. 1 -->
     <g transform="translate(91.2 550.925938)scale(0.1 -0.1)">
      <use xlink:href="#DejaVuSans-63"/>
      <use x="54.980469" xlink:href="#DejaVuSans-6f"/>
      <use x="116.162109" xlink:href="#DejaVuSans-6d"/>
      <use x="213.574219" xlink:href="#DejaVuSans-70"/>
      <use x="277.050781" xlink:href="#DejaVuSans-2e"/>
      <use x="308.837891" xlink:href="#DejaVuSans-20"/>
      <use x="340.625" xlink:href="#DejaVuSans-31"/>
     </g>
    </g>
    <g id="line2d_101">
     <path d="M 63.2 562.104063 
L 83.2 562.104063 
" style="fill:none;stroke:#ff7f0e;stroke-linecap:square;"/>
    </g>
    <g id="line2d_102"/>
    <g id="text_69">
     <!-- comp. 2 -->
     <g transform="translate(91.2 565.604063)scale(0.1 -0.1)">
      <use xlink:href="#DejaVuSans-63"/>
      <use x="54.980469" xlink:href="#DejaVuSans-6f"/>
      <use x="116.162109" xlink:href="#DejaVuSans-6d"/>
      <use x="213.574219" xlink:href="#DejaVuSans-70"/>
      <use x="277.050781" xlink:href="#DejaVuSans-2e"/>
      <use x="308.837891" xlink:href="#DejaVuSans-20"/>
      <use x="340.625" xlink:href="#DejaVuSans-32"/>
     </g>
    </g>
    <g id="line2d_103">
     <path d="M 63.2 576.782187 
L 83.2 576.782187 
" style="fill:none;stroke:#2ca02c;stroke-linecap:square;"/>
    </g>
    <g id="line2d_104"/>
    <g id="text_70">
     <!-- comp. 3 -->
     <g transform="translate(91.2 580.282187)scale(0.1 -0.1)">
      <use xlink:href="#DejaVuSans-63"/>
      <use x="54.980469" xlink:href="#DejaVuSans-6f"/>
      <use x="116.162109" xlink:href="#DejaVuSans-6d"/>
      <use x="213.574219" xlink:href="#DejaVuSans-70"/>
      <use x="277.050781" xlink:href="#DejaVuSans-2e"/>
      <use x="308.837891" xlink:href="#DejaVuSans-20"/>
      <use x="340.625" xlink:href="#DejaVuSans-33"/>
     </g>
    </g>
    <g id="line2d_105">
     <path d="M 63.2 591.460312 
L 83.2 591.460312 
" style="fill:none;stroke:#d62728;stroke-linecap:square;"/>
    </g>
    <g id="line2d_106"/>
    <g id="text_71">
     <!-- comp. 4 -->
     <g transform="translate(91.2 594.960312)scale(0.1 -0.1)">
      <use xlink:href="#DejaVuSans-63"/>
      <use x="54.980469" xlink:href="#DejaVuSans-6f"/>
      <use x="116.162109" xlink:href="#DejaVuSans-6d"/>
      <use x="213.574219" xlink:href="#DejaVuSans-70"/>
      <use x="277.050781" xlink:href="#DejaVuSans-2e"/>
      <use x="308.837891" xlink:href="#DejaVuSans-20"/>
      <use x="340.625" xlink:href="#DejaVuSans-34"/>
     </g>
    </g>
   </g>
  </g>
 </g>
 <defs>
  <clipPath id="p0666f1fea3">
   <rect height="262" width="372.257739" x="54.2" y="25.44"/>
  </clipPath>
  <clipPath id="p4cc9ada6e9">
   <rect height="262" width="372.257739" x="479.225" y="25.44"/>
  </clipPath>
  <clipPath id="p941f489bd6">
   <rect height="262" width="372.257739" x="54.2" y="344.04"/>
  </clipPath>
 </defs>
</svg>
